<svg xmlns="http://www.w3.org/2000/svg" width="221" height="111" fill="none"><path stroke="#3E4095" stroke-width=".75" d="M82 22.625h139M82 7.625h139"/><path stroke="#536B76" stroke-width=".75" d="M0 48.602h221M0 48.602h221M0 48.602h221M0 77.625h221M0 77.625h221M0 77.625h221M81.938 102V25M81.938 102V25M81.938 102V25M144.705 102V25M144.705 102V25M144.705 102V25"/><path fill="#536B76" d="M35.366 67.144v.476c0 .698-.093 1.327-.28 1.885a4.078 4.078 0 0 1-.792 1.416c-.343.39-.752.688-1.226.895-.474.207-1 .311-1.58.311a3.914 3.914 0 0 1-1.574-.311 3.523 3.523 0 0 1-1.232-.895 4.1 4.1 0 0 1-.806-1.416c-.19-.558-.286-1.187-.286-1.885v-.476c0-.702.096-1.33.286-1.885.19-.555.457-1.026.8-1.416a3.429 3.429 0 0 1 1.225-.901 3.914 3.914 0 0 1 1.574-.311c.58 0 1.107.103 1.58.31a3.43 3.43 0 0 1 1.226.902c.347.39.613.861.8 1.416.19.554.285 1.183.285 1.885Zm-1.764.476v-.489c0-.503-.047-.945-.14-1.326a2.875 2.875 0 0 0-.413-.972 1.756 1.756 0 0 0-.672-.59 1.961 1.961 0 0 0-.902-.203c-.338 0-.639.068-.901.203a1.785 1.785 0 0 0-.66.59 2.968 2.968 0 0 0-.42.972c-.093.38-.139.823-.139 1.326v.49c0 .499.046.94.14 1.326.097.385.237.71.419.977.186.263.41.462.672.597.263.135.563.203.902.203.338 0 .639-.068.901-.203s.483-.334.66-.597c.182-.266.32-.592.413-.977.093-.385.14-.828.14-1.327Zm3.243-4.862h3.358c.703 0 1.306.106 1.81.317.503.212.89.525 1.16.94.272.414.407.924.407 1.53 0 .478-.085.892-.254 1.244-.17.35-.408.645-.717.882a3.519 3.519 0 0 1-1.08.558l-.545.28h-2.965l-.012-1.378h2.215c.36 0 .658-.063.895-.19s.415-.303.533-.527c.123-.224.184-.48.184-.768 0-.309-.059-.576-.177-.8a1.205 1.205 0 0 0-.54-.527c-.241-.122-.546-.184-.914-.184h-1.612V72h-1.746v-9.242ZM42.063 72l-2.14-4.139 1.848-.006 2.164 4.056V72h-1.872Zm10.258-4.78v3.6c-.136.173-.35.361-.641.564-.288.203-.665.379-1.13.527-.466.144-1.037.216-1.714.216a4.306 4.306 0 0 1-1.612-.292 3.477 3.477 0 0 1-1.257-.87 3.92 3.92 0 0 1-.813-1.396c-.19-.55-.285-1.179-.285-1.885v-.61c0-.706.089-1.335.266-1.885.182-.55.44-1.016.775-1.396.338-.381.742-.671 1.212-.87a4.063 4.063 0 0 1 1.587-.299c.783 0 1.426.13 1.93.388.508.258.897.613 1.168 1.066.27.449.44.965.508 1.549h-1.702a2.339 2.339 0 0 0-.279-.844 1.44 1.44 0 0 0-.597-.572c-.254-.14-.584-.209-.99-.209-.343 0-.645.068-.908.203a1.795 1.795 0 0 0-.66.59 2.886 2.886 0 0 0-.406.959c-.089.38-.133.817-.133 1.307v.623c0 .495.05.935.152 1.32a2.9 2.9 0 0 0 .438.965c.195.258.434.455.717.59.288.131.614.197.978.197.33 0 .603-.028.819-.083.22-.059.395-.129.526-.21.132-.08.233-.158.305-.234v-1.733h-1.834V67.22h3.58ZM107.786 66.585v1.556c0 .71-.072 1.318-.216 1.821-.144.504-.351.917-.622 1.238a2.494 2.494 0 0 1-.971.705 3.411 3.411 0 0 1-1.257.222c-.368 0-.711-.047-1.029-.14a2.628 2.628 0 0 1-.857-.444 2.805 2.805 0 0 1-.647-.774 4.078 4.078 0 0 1-.413-1.124 7.262 7.262 0 0 1-.139-1.504v-1.556c0-.71.072-1.316.216-1.815.148-.5.357-.908.628-1.225a2.38 2.38 0 0 1 .971-.692 3.411 3.411 0 0 1 1.257-.222c.372 0 .715.046 1.028.14.318.093.601.239.851.438.254.194.47.448.647.761.178.31.314.681.407 1.117.097.432.146.931.146 1.498Zm-1.676 1.784v-2.018c0-.356-.021-.665-.064-.927a2.89 2.89 0 0 0-.171-.68 1.339 1.339 0 0 0-.286-.45 1.047 1.047 0 0 0-.393-.26 1.394 1.394 0 0 0-.489-.083c-.22 0-.417.045-.59.134-.174.084-.32.22-.438.406-.119.186-.21.433-.273.742a5.986 5.986 0 0 0-.089 1.118v2.018c0 .356.019.667.057.933.042.267.102.495.178.686.08.19.175.347.285.47.115.118.246.207.394.266.148.055.311.083.489.083.224 0 .421-.045.59-.134.174-.088.32-.228.438-.419.119-.194.207-.446.267-.755.063-.313.095-.69.095-1.13Zm3.142 2.812c0-.254.087-.468.26-.641.174-.174.409-.26.705-.26s.531.087.704.26a.87.87 0 0 1 .261.641c0 .25-.087.461-.261.635-.173.17-.408.254-.704.254s-.531-.085-.705-.254a.865.865 0 0 1-.26-.635Zm9.667-1.707c0 .575-.135 1.062-.406 1.46a2.492 2.492 0 0 1-1.098.895c-.461.199-.986.298-1.574.298a4.02 4.02 0 0 1-1.581-.298 2.586 2.586 0 0 1-1.111-.895c-.27-.398-.406-.885-.406-1.46 0-.386.076-.735.229-1.048.156-.313.372-.582.647-.806.275-.228.601-.402.978-.52a3.951 3.951 0 0 1 1.231-.184c.593 0 1.122.107 1.587.323.47.212.838.51 1.105.895.266.381.399.828.399 1.34Zm-1.688-.102c0-.296-.059-.552-.178-.768a1.201 1.201 0 0 0-.489-.508 1.48 1.48 0 0 0-.736-.178c-.283 0-.531.06-.743.178-.207.119-.37.288-.488.508a1.611 1.611 0 0 0-.172.768c0 .3.057.559.172.775.118.211.283.374.495.488.211.114.461.172.749.172s.535-.058.742-.172c.208-.114.367-.277.477-.489.114-.215.171-.474.171-.774Zm1.485-4.177c0 .466-.122.88-.368 1.245a2.46 2.46 0 0 1-1.022.844c-.431.203-.927.304-1.485.304-.559 0-1.058-.101-1.498-.304a2.514 2.514 0 0 1-1.029-.845 2.177 2.177 0 0 1-.368-1.244c0-.55.125-1.015.375-1.396.249-.385.59-.677 1.022-.876a3.54 3.54 0 0 1 1.485-.299c.563 0 1.062.1 1.498.299.436.199.777.49 1.022.876.246.38.368.846.368 1.396Zm-1.675.07c0-.262-.049-.49-.146-.685a1.09 1.09 0 0 0-.419-.464 1.21 1.21 0 0 0-.648-.165c-.245 0-.457.053-.635.159a1.059 1.059 0 0 0-.412.457 1.537 1.537 0 0 0-.146.698c0 .267.048.5.146.698.097.2.235.356.412.47.182.11.398.165.648.165.249 0 .463-.055.641-.165.178-.114.315-.27.413-.47.097-.198.146-.431.146-.698Zm9.292 1.32v1.556c0 .71-.071 1.318-.215 1.821-.144.504-.352.917-.622 1.238a2.49 2.49 0 0 1-.972.705 3.402 3.402 0 0 1-1.256.222c-.369 0-.711-.047-1.029-.14a2.628 2.628 0 0 1-.857-.444 2.805 2.805 0 0 1-.647-.774 4.078 4.078 0 0 1-.413-1.124 7.262 7.262 0 0 1-.139-1.504v-1.556c0-.71.072-1.316.215-1.815.149-.5.358-.908.629-1.225.271-.318.594-.548.971-.692a3.411 3.411 0 0 1 1.257-.222c.372 0 .715.046 1.028.14.318.093.601.239.851.438.254.194.47.448.647.761.178.31.313.681.407 1.117.097.432.145.931.145 1.498Zm-1.675 1.784v-2.018c0-.356-.021-.665-.064-.927a2.89 2.89 0 0 0-.171-.68 1.354 1.354 0 0 0-.286-.45 1.047 1.047 0 0 0-.393-.26 1.394 1.394 0 0 0-.489-.083c-.22 0-.417.045-.59.134-.174.084-.32.22-.438.406-.119.186-.21.433-.273.742-.06.305-.089.677-.089 1.118v2.018c0 .356.019.667.057.933.042.267.101.495.178.686.08.19.175.347.285.47.115.118.246.207.394.266.148.055.311.083.489.083.224 0 .421-.045.59-.134.173-.088.319-.228.438-.419.118-.194.207-.446.266-.755.064-.313.096-.69.096-1.13ZM33.748 98.629V100H29.1v-1.371h4.647Zm-4.12-7.871V100h-1.746v-9.242h1.746Zm12.352 4.386v.476c0 .698-.093 1.327-.279 1.885a4.077 4.077 0 0 1-.793 1.416c-.343.39-.751.688-1.225.895-.474.207-1.001.311-1.58.311a3.92 3.92 0 0 1-1.575-.311 3.524 3.524 0 0 1-1.232-.895 4.101 4.101 0 0 1-.806-1.416c-.19-.558-.285-1.187-.285-1.885v-.476c0-.702.095-1.33.285-1.885.19-.555.457-1.026.8-1.416a3.43 3.43 0 0 1 1.225-.901 3.914 3.914 0 0 1 1.574-.311c.58 0 1.107.103 1.58.31.475.208.883.509 1.226.902.347.39.614.861.8 1.416.19.554.285 1.183.285 1.885Zm-1.764.476v-.489c0-.503-.047-.945-.14-1.326a2.877 2.877 0 0 0-.412-.972 1.757 1.757 0 0 0-.673-.59 1.96 1.96 0 0 0-.902-.203c-.338 0-.639.068-.901.203a1.786 1.786 0 0 0-.66.59 2.968 2.968 0 0 0-.42.972c-.092.38-.139.823-.139 1.326v.49c0 .499.047.94.14 1.326.097.385.237.71.419.977.186.263.41.462.673.597.262.135.563.203.901.203.339 0 .639-.068.901-.203.263-.135.483-.334.66-.597a2.95 2.95 0 0 0 .413-.977c.093-.385.14-.828.14-1.327Zm8.652 1.34h1.745a3.584 3.584 0 0 1-.514 1.644 3.077 3.077 0 0 1-1.238 1.117c-.529.27-1.17.406-1.923.406-.58 0-1.102-.102-1.568-.305a3.394 3.394 0 0 1-1.187-.882 4.032 4.032 0 0 1-.749-1.384 5.957 5.957 0 0 1-.26-1.822v-.704c0-.673.089-1.28.266-1.822a3.98 3.98 0 0 1 .762-1.384 3.407 3.407 0 0 1 1.2-.888c.47-.208.994-.312 1.574-.312.753 0 1.39.14 1.91.42.521.275.925.653 1.213 1.136.288.482.461 1.036.52 1.663h-1.745a2.738 2.738 0 0 0-.254-.99 1.336 1.336 0 0 0-.597-.616c-.262-.144-.611-.216-1.047-.216-.338 0-.637.064-.895.19a1.638 1.638 0 0 0-.635.572 2.73 2.73 0 0 0-.38.94 5.888 5.888 0 0 0-.128 1.294v.717c0 .47.039.891.115 1.264.076.372.194.687.355.945.161.258.368.455.622.59.254.136.557.204.908.204.427 0 .774-.068 1.041-.203.27-.136.476-.335.616-.597.144-.262.235-.588.273-.977ZM106.786 91.585v1.556c0 .71-.072 1.318-.216 1.821-.144.504-.351.917-.622 1.238a2.494 2.494 0 0 1-.971.705 3.411 3.411 0 0 1-1.257.222c-.368 0-.711-.047-1.029-.14a2.628 2.628 0 0 1-.857-.444 2.805 2.805 0 0 1-.647-.774 4.078 4.078 0 0 1-.413-1.124 7.262 7.262 0 0 1-.139-1.504v-1.556c0-.71.072-1.316.216-1.815.148-.5.357-.908.628-1.225a2.38 2.38 0 0 1 .971-.692 3.411 3.411 0 0 1 1.257-.222c.372 0 .715.046 1.028.14.318.093.601.239.851.438.254.194.47.448.647.761.178.31.314.681.407 1.117.097.432.146.931.146 1.498Zm-1.676 1.784v-2.018c0-.356-.021-.665-.064-.927a2.89 2.89 0 0 0-.171-.68 1.339 1.339 0 0 0-.286-.45 1.047 1.047 0 0 0-.393-.26 1.394 1.394 0 0 0-.489-.083c-.22 0-.417.045-.59.134-.174.084-.32.22-.438.406-.119.186-.21.433-.273.742a5.986 5.986 0 0 0-.089 1.118v2.018c0 .356.019.667.057.933.042.267.102.495.178.686.08.19.175.347.285.47.115.118.246.207.394.266.148.055.311.083.489.083.224 0 .421-.045.59-.134.174-.088.32-.228.438-.419.119-.194.207-.446.267-.755.063-.313.095-.69.095-1.13Zm3.142 2.812c0-.254.087-.468.26-.641.174-.174.409-.26.705-.26s.531.087.704.26a.87.87 0 0 1 .261.641c0 .25-.087.461-.261.635-.173.17-.408.254-.704.254s-.531-.085-.705-.254a.865.865 0 0 1-.26-.635Zm4.799-.482h.12c.546 0 1.008-.07 1.384-.21.381-.14.688-.336.921-.59.237-.258.408-.565.514-.92.11-.36.165-.758.165-1.194V91.11c0-.355-.036-.666-.108-.933a2.057 2.057 0 0 0-.305-.679 1.243 1.243 0 0 0-.45-.406 1.166 1.166 0 0 0-.559-.14c-.22 0-.415.051-.584.153a1.365 1.365 0 0 0-.432.418 2.113 2.113 0 0 0-.266.603c-.06.229-.089.47-.089.724 0 .246.027.48.082.705.06.224.146.423.261.596.118.174.266.311.444.413.178.097.385.146.622.146.224 0 .427-.042.609-.127.187-.089.347-.205.483-.35.135-.147.239-.31.311-.488.076-.182.118-.366.127-.552l.59.254c0 .309-.065.613-.197.914a2.747 2.747 0 0 1-1.339 1.403 2.277 2.277 0 0 1-.984.215c-.436 0-.821-.08-1.155-.24a2.41 2.41 0 0 1-.844-.667 3.03 3.03 0 0 1-.508-.99 4.143 4.143 0 0 1-.172-1.207c0-.444.07-.86.21-1.25.14-.393.341-.738.603-1.035.266-.3.588-.535.965-.704.376-.174.8-.26 1.269-.26.487 0 .921.095 1.302.285.38.19.704.455.971.794.266.334.469.73.609 1.187.144.457.216.956.216 1.498v.59c0 .571-.057 1.113-.171 1.625a5.17 5.17 0 0 1-.527 1.403c-.237.423-.54.79-.908 1.098-.364.309-.8.548-1.308.717-.503.165-1.079.248-1.726.248h-.146v-1.371Zm12.282-4.114v1.556c0 .71-.071 1.318-.215 1.821-.144.504-.352.917-.622 1.238a2.49 2.49 0 0 1-.972.705 3.402 3.402 0 0 1-1.256.222c-.369 0-.711-.047-1.029-.14a2.628 2.628 0 0 1-.857-.444 2.805 2.805 0 0 1-.647-.774 4.078 4.078 0 0 1-.413-1.124 7.262 7.262 0 0 1-.139-1.504v-1.556c0-.71.072-1.316.215-1.815.149-.5.358-.908.629-1.225.271-.317.594-.548.971-.692a3.411 3.411 0 0 1 1.257-.222c.372 0 .715.046 1.028.14.318.093.601.239.851.438.254.194.47.448.647.761.178.31.313.681.407 1.117.097.432.145.931.145 1.498Zm-1.675 1.784v-2.018c0-.356-.021-.665-.064-.927a2.89 2.89 0 0 0-.171-.68 1.354 1.354 0 0 0-.286-.45 1.047 1.047 0 0 0-.393-.26 1.394 1.394 0 0 0-.489-.083c-.22 0-.417.045-.59.134-.174.084-.32.22-.438.406-.119.186-.21.433-.273.742-.06.305-.089.677-.089 1.118v2.018c0 .356.019.667.057.933.042.267.101.495.178.686.08.19.175.347.285.47.115.118.246.207.394.266.148.055.311.083.489.083.224 0 .421-.045.59-.134.173-.088.319-.228.438-.419.118-.194.207-.446.266-.755.064-.313.096-.69.096-1.13ZM31.437 40.63h-2.38v-1.372h2.38c.39 0 .705-.063.946-.19a1.24 1.24 0 0 0 .54-.533c.114-.229.17-.49.17-.781 0-.284-.056-.548-.17-.794a1.38 1.38 0 0 0-.54-.596c-.241-.153-.557-.229-.946-.229h-1.81V44h-1.745v-9.242h3.555c.72 0 1.333.129 1.84.387.513.254.902.607 1.169 1.06.27.449.406.96.406 1.536 0 .597-.135 1.111-.406 1.543-.267.431-.656.764-1.168.996-.508.233-1.122.35-1.841.35Zm10.912 1.999V44h-4.913v-1.371h4.913Zm-4.38-7.871V44h-1.746v-9.242h1.746Zm3.739 3.815v1.34h-4.273v-1.34h4.273Zm.622-3.815v1.377h-4.895v-1.377h4.895Zm1.231 0h3.358c.702 0 1.305.106 1.809.317.504.212.89.525 1.162.94.27.414.406.924.406 1.53 0 .478-.085.892-.254 1.244-.17.35-.408.645-.717.882a3.519 3.519 0 0 1-1.08.559l-.545.279h-2.965l-.012-1.378h2.215c.36 0 .658-.063.895-.19s.415-.303.533-.527c.123-.224.184-.48.184-.768 0-.309-.059-.575-.177-.8a1.205 1.205 0 0 0-.54-.527c-.241-.122-.546-.184-.914-.184h-1.612V44H43.56v-9.242ZM48.779 44l-2.14-4.139 1.848-.006 2.164 4.056V44H48.78ZM109.786 38.585v1.556c0 .71-.072 1.318-.216 1.821-.144.504-.351.917-.622 1.238a2.494 2.494 0 0 1-.971.705 3.411 3.411 0 0 1-1.257.222c-.368 0-.711-.047-1.029-.14a2.628 2.628 0 0 1-.857-.444 2.805 2.805 0 0 1-.647-.774 4.078 4.078 0 0 1-.413-1.124 7.262 7.262 0 0 1-.139-1.504v-1.556c0-.71.072-1.316.216-1.815.148-.5.357-.908.628-1.225a2.38 2.38 0 0 1 .971-.692 3.411 3.411 0 0 1 1.257-.222c.372 0 .715.046 1.028.14.318.093.601.239.851.438.254.194.47.448.647.761.178.31.314.681.407 1.117.097.432.146.931.146 1.498Zm-1.676 1.784v-2.018c0-.356-.021-.665-.064-.927a2.89 2.89 0 0 0-.171-.68 1.339 1.339 0 0 0-.286-.45 1.047 1.047 0 0 0-.393-.26 1.394 1.394 0 0 0-.489-.083c-.22 0-.417.045-.59.133-.174.085-.32.22-.438.407-.119.186-.21.434-.273.742a5.986 5.986 0 0 0-.089 1.118v2.018c0 .356.019.667.057.933.042.267.102.495.178.686.08.19.175.347.285.47.115.118.246.207.394.266.148.055.311.083.489.083.224 0 .421-.045.59-.134.174-.089.32-.228.438-.419.119-.194.207-.446.267-.755.063-.313.095-.69.095-1.13Zm3.142 2.812c0-.254.087-.467.26-.641.174-.173.409-.26.705-.26s.531.087.704.26a.87.87 0 0 1 .261.641c0 .25-.087.461-.261.635-.173.17-.408.254-.704.254s-.531-.085-.705-.254a.865.865 0 0 1-.26-.635Zm9.744-8.423v.914L117.365 44h-1.771l3.631-7.922h-4.698v-1.32h6.469Zm7.337 3.827v1.556c0 .71-.071 1.318-.215 1.821-.144.504-.352.917-.622 1.238a2.49 2.49 0 0 1-.972.705 3.402 3.402 0 0 1-1.256.222c-.369 0-.711-.047-1.029-.14a2.628 2.628 0 0 1-.857-.444 2.805 2.805 0 0 1-.647-.774 4.078 4.078 0 0 1-.413-1.124 7.262 7.262 0 0 1-.139-1.504v-1.556c0-.71.072-1.316.215-1.815.149-.5.358-.908.629-1.225.271-.318.594-.548.971-.692a3.411 3.411 0 0 1 1.257-.222c.372 0 .715.046 1.028.14.318.093.601.239.851.438.254.194.47.448.647.761.178.31.313.681.407 1.117.097.432.145.931.145 1.498Zm-1.675 1.784v-2.018c0-.356-.021-.665-.064-.927a2.89 2.89 0 0 0-.171-.68 1.354 1.354 0 0 0-.286-.45 1.047 1.047 0 0 0-.393-.26 1.394 1.394 0 0 0-.489-.083c-.22 0-.417.045-.59.133-.174.085-.32.22-.438.407-.119.186-.21.434-.273.742-.06.305-.089.678-.089 1.118v2.018c0 .356.019.667.057.933.042.267.101.495.178.686.08.19.175.347.285.47.115.118.246.207.394.266.148.055.311.083.489.083.224 0 .421-.045.59-.134.173-.089.319-.228.438-.419.118-.194.207-.446.266-.755.064-.313.096-.69.096-1.13Z"/><path fill="#5334AE" d="M93.94 15.22h3.49v1.1h-3.49v-1.1Zm.11 3.78h-1.3v-7h5.11v1.09h-3.81V19Zm4.677-2.26V15.7h2.75v1.04h-2.75Zm4.662 2.26v-6.5l.57.59h-2.05V12h2.78v7h-1.3Zm8.122.1a5.33 5.33 0 0 1-1.57-.23c-.5-.16-.896-.363-1.19-.61l.45-1.01c.28.22.627.403 1.04.55.414.147.837.22 1.27.22.367 0 .664-.04.89-.12.227-.08.394-.187.5-.32a.754.754 0 0 0 .16-.47.626.626 0 0 0-.23-.51 1.588 1.588 0 0 0-.6-.31c-.24-.08-.51-.153-.81-.22-.293-.067-.59-.143-.89-.23a4.256 4.256 0 0 1-.81-.35 1.823 1.823 0 0 1-.59-.58c-.153-.24-.23-.547-.23-.92 0-.38.1-.727.3-1.04.207-.32.517-.573.93-.76.42-.193.95-.29 1.59-.29.42 0 .837.053 1.25.16.414.107.774.26 1.08.46l-.41 1.01a3.704 3.704 0 0 0-.97-.41 3.556 3.556 0 0 0-.96-.14c-.36 0-.653.043-.88.13-.22.087-.383.2-.49.34-.1.14-.15.3-.15.48 0 .213.074.387.22.52.154.127.35.227.59.3.247.073.52.147.82.22.3.067.597.143.89.23.3.087.57.2.81.34.247.14.444.33.59.57.154.24.23.543.23.91 0 .373-.103.72-.31 1.04-.2.313-.51.567-.93.76-.42.187-.95.28-1.59.28Zm6.449-.03c-.56 0-1.06-.117-1.5-.35a2.675 2.675 0 0 1-1.02-.98 2.704 2.704 0 0 1-.37-1.41c0-.533.124-1.003.37-1.41a2.602 2.602 0 0 1 1.02-.97c.44-.233.94-.35 1.5-.35.52 0 .977.107 1.37.32.4.207.704.513.91.92l-.96.56a1.52 1.52 0 0 0-.59-.56 1.554 1.554 0 0 0-.74-.18 1.72 1.72 0 0 0-.83.2c-.246.133-.44.327-.58.58-.14.247-.21.543-.21.89s.07.647.21.9c.14.247.334.437.58.57.247.133.524.2.83.2.267 0 .514-.06.74-.18.234-.12.43-.307.59-.56l.96.56c-.206.4-.51.71-.91.93-.393.213-.85.32-1.37.32Zm5.683 0a2.993 2.993 0 0 1-1.46-.35 2.69 2.69 0 0 1-1.01-.98 2.695 2.695 0 0 1-.37-1.41c0-.533.123-1.003.37-1.41a2.616 2.616 0 0 1 1.01-.97c.427-.233.913-.35 1.46-.35.553 0 1.043.117 1.47.35.433.233.77.553 1.01.96.247.407.37.88.37 1.42 0 .527-.123.997-.37 1.41a2.6 2.6 0 0 1-1.01.98c-.427.233-.917.35-1.47.35Zm0-1.07c.307 0 .58-.067.82-.2s.427-.327.56-.58c.14-.253.21-.55.21-.89 0-.347-.07-.643-.21-.89a1.381 1.381 0 0 0-.56-.58 1.64 1.64 0 0 0-.81-.2c-.307 0-.58.067-.82.2a1.47 1.47 0 0 0-.56.58c-.14.247-.21.543-.21.89 0 .34.07.637.21.89.14.253.327.447.56.58.24.133.51.2.81.2Zm4.045 1v-5.34h1.19v1.47l-.14-.43c.16-.36.41-.633.75-.82.347-.187.777-.28 1.29-.28v1.19a.618.618 0 0 0-.15-.02.984.984 0 0 0-.14-.01c-.473 0-.85.14-1.13.42-.28.273-.42.683-.42 1.23V19h-1.25Zm6.612.07c-.594 0-1.114-.117-1.56-.35a2.647 2.647 0 0 1-1.03-.98 2.756 2.756 0 0 1-.36-1.41c0-.533.116-1.003.35-1.41.24-.413.566-.737.98-.97.42-.233.896-.35 1.43-.35.52 0 .983.113 1.39.34.406.227.726.547.96.96.233.413.35.9.35 1.46 0 .053-.004.113-.01.18 0 .067-.004.13-.01.19h-4.45v-.83h3.79l-.49.26a1.544 1.544 0 0 0-.19-.81 1.46 1.46 0 0 0-.55-.55 1.53 1.53 0 0 0-.79-.2c-.307 0-.577.067-.81.2a1.45 1.45 0 0 0-.54.56c-.127.233-.19.51-.19.83v.2c0 .32.073.603.22.85.146.247.353.437.62.57.266.133.573.2.92.2.3 0 .57-.047.81-.14.24-.093.453-.24.64-.44l.67.77c-.24.28-.544.497-.91.65-.36.147-.774.22-1.24.22ZM169.37 19v-7h2.88c.62 0 1.15.1 1.59.3.446.2.79.487 1.03.86s.36.817.36 1.33c0 .513-.12.957-.36 1.33-.24.373-.584.66-1.03.86-.44.2-.97.3-1.59.3h-2.16l.58-.61V19h-1.3Zm1.3-2.49-.58-.63h2.1c.573 0 1.003-.12 1.29-.36.293-.247.44-.59.44-1.03 0-.447-.147-.79-.44-1.03-.287-.24-.717-.36-1.29-.36h-2.1l.58-.64v4.05Zm8.979 2.49v-1.08l-.07-.23V15.8c0-.367-.11-.65-.33-.85-.22-.207-.553-.31-1-.31-.3 0-.597.047-.89.14-.287.093-.53.223-.73.39l-.49-.91c.287-.22.627-.383 1.02-.49.4-.113.813-.17 1.24-.17.773 0 1.37.187 1.79.56.427.367.64.937.64 1.71V19h-1.18Zm-1.68.07c-.4 0-.75-.067-1.05-.2a1.71 1.71 0 0 1-.7-.57 1.492 1.492 0 0 1-.24-.83c0-.3.07-.57.21-.81.147-.24.383-.43.71-.57.327-.14.76-.21 1.3-.21h1.55v.83h-1.46c-.427 0-.713.07-.86.21a.646.646 0 0 0-.22.5c0 .227.09.407.27.54.18.133.43.2.75.2.307 0 .58-.07.82-.21.247-.14.423-.347.53-.62l.21.75c-.12.313-.337.557-.65.73-.307.173-.697.26-1.17.26Zm6.114 0c-.446 0-.876-.057-1.29-.17-.406-.12-.73-.263-.97-.43l.48-.95c.24.153.527.28.86.38.334.1.667.15 1 .15.394 0 .677-.053.85-.16.18-.107.27-.25.27-.43a.362.362 0 0 0-.18-.33c-.12-.08-.276-.14-.47-.18-.193-.04-.41-.077-.65-.11a9.434 9.434 0 0 1-.71-.13 2.737 2.737 0 0 1-.64-.25 1.383 1.383 0 0 1-.47-.45c-.12-.187-.18-.433-.18-.74 0-.34.097-.633.29-.88a1.81 1.81 0 0 1 .81-.58c.354-.14.77-.21 1.25-.21.36 0 .724.04 1.09.12.367.08.67.193.91.34l-.48.95a2.424 2.424 0 0 0-.77-.31 3.281 3.281 0 0 0-.76-.09c-.38 0-.663.057-.85.17-.18.113-.27.257-.27.43 0 .16.06.28.18.36.12.08.277.143.47.19.194.047.407.087.64.12.24.027.477.07.71.13.234.06.447.143.64.25.2.1.36.243.48.43s.18.43.18.73c0 .333-.1.623-.3.87-.193.247-.47.44-.83.58-.36.133-.79.2-1.29.2Zm5.147 0c-.447 0-.877-.057-1.29-.17-.407-.12-.73-.263-.97-.43l.48-.95c.24.153.526.28.86.38.333.1.666.15 1 .15.393 0 .676-.053.85-.16.18-.107.27-.25.27-.43a.362.362 0 0 0-.18-.33c-.12-.08-.277-.14-.47-.18a10.12 10.12 0 0 0-.65-.11 9.343 9.343 0 0 1-.71-.13 2.703 2.703 0 0 1-.64-.25 1.374 1.374 0 0 1-.47-.45c-.12-.187-.18-.433-.18-.74 0-.34.096-.633.29-.88a1.8 1.8 0 0 1 .81-.58c.353-.14.77-.21 1.25-.21.36 0 .723.04 1.09.12.366.08.67.193.91.34l-.48.95a2.433 2.433 0 0 0-.77-.31 3.294 3.294 0 0 0-.76-.09c-.38 0-.664.057-.85.17-.18.113-.27.257-.27.43 0 .16.06.28.18.36.12.08.276.143.47.19.193.047.406.087.64.12.24.027.476.07.71.13.233.06.446.143.64.25.2.1.36.243.48.43s.18.43.18.73c0 .333-.1.623-.3.87-.194.247-.47.44-.83.58-.36.133-.79.2-1.29.2Zm4.75-2.39c0-.247.04-.463.12-.65.08-.187.183-.353.31-.5.126-.147.26-.283.4-.41.146-.127.283-.25.41-.37.126-.12.23-.247.31-.38a.857.857 0 0 0 .12-.45.818.818 0 0 0-.34-.68c-.227-.173-.53-.26-.91-.26-.367 0-.687.067-.96.2-.267.133-.49.323-.67.57l-.97-.63c.28-.38.646-.677 1.1-.89.453-.22.99-.33 1.61-.33.486 0 .913.073 1.28.22.366.14.653.347.86.62.206.267.31.593.31.98 0 .267-.044.5-.13.7-.08.2-.187.377-.32.53a5.006 5.006 0 0 1-.41.42c-.147.127-.287.253-.42.38-.127.127-.23.263-.31.41-.08.147-.12.32-.12.52h-1.27Zm.64 2.39a.766.766 0 0 1-.8-.78c0-.213.073-.393.22-.54a.785.785 0 0 1 .58-.23c.233 0 .423.077.57.23.146.147.22.327.22.54a.77.77 0 0 1-.79.78Z"/><path stroke="#0098DA" stroke-linecap="round" stroke-miterlimit="10" stroke-width="2" d="m189 62-5.9 6.101a1.102 1.102 0 0 1-1.563 0L179 65.538"/><path stroke="#EF8000" stroke-linecap="round" stroke-miterlimit="10" stroke-width="2" d="m190 35-8.979 9.15M181 35l9 9.15"/></svg>