<svg xmlns="http://www.w3.org/2000/svg" width="263" height="108" fill="none"><path stroke="#3E4095" stroke-width=".75" d="M187 24.625h76M187 7.625h76"/><path stroke="#EF8000" stroke-linecap="round" stroke-miterlimit="10" stroke-width="2" d="m230 31-8.979 9.15M221 31l9 9.15"/><path stroke="#0098DA" stroke-linecap="round" stroke-miterlimit="10" stroke-width="2" d="m230 62-5.9 6.101a1.102 1.102 0 0 1-1.563 0L220 65.538M230 90l-5.9 6.101a1.102 1.102 0 0 1-1.563 0L220 93.538"/><path stroke="#536B76" stroke-width=".75" d="M0 48.602h263M0 48.602h263M0 48.602h263M0 77.625h263M0 77.625h263M0 77.625h263M186.705 102V25M186.705 102V25M186.705 102V25"/><path fill="#536B76" d="M12.85 61.758V71h-1.74v-9.242h1.74Zm2.869 0v1.377H8.273v-1.377h7.446Zm2.679-.508V71h-1.683v-9.75h1.683Zm-.267 6.068h-.495c0-.478.063-.918.19-1.32a3.27 3.27 0 0 1 .54-1.047c.233-.3.51-.533.831-.699a2.354 2.354 0 0 1 1.08-.247c.338 0 .645.049.92.146.28.093.518.243.717.45.199.208.351.479.457.813.11.33.165.732.165 1.206V71h-1.688v-4.393c0-.317-.047-.567-.14-.749a.834.834 0 0 0-.4-.4 1.46 1.46 0 0 0-.628-.12c-.271 0-.504.053-.699.159a1.332 1.332 0 0 0-.482.425 2.074 2.074 0 0 0-.28.628c-.059.237-.088.493-.088.768Zm8.97 3.809c-.521 0-.989-.085-1.404-.254a3.08 3.08 0 0 1-1.06-.705 3.24 3.24 0 0 1-.666-1.06 3.695 3.695 0 0 1-.229-1.307v-.254c0-.53.076-1.01.229-1.441.152-.436.368-.81.647-1.124a2.85 2.85 0 0 1 1.003-.723c.39-.17.819-.254 1.289-.254.486 0 .916.082 1.288.247.373.161.684.39.933.686.25.296.438.652.565 1.066.127.41.19.866.19 1.365v.705h-5.382v-1.156h3.732v-.127a2.022 2.022 0 0 0-.152-.73 1.166 1.166 0 0 0-.432-.533c-.194-.135-.446-.203-.755-.203-.25 0-.468.055-.654.165a1.313 1.313 0 0 0-.457.457 2.267 2.267 0 0 0-.267.698c-.059.271-.088.572-.088.902v.254c0 .287.038.554.114.8.08.245.197.459.349.64.157.178.343.318.559.42.22.097.47.146.749.146.35 0 .668-.068.952-.204a2.12 2.12 0 0 0 .749-.615l.844.876a2.8 2.8 0 0 1-.584.61 2.98 2.98 0 0 1-.876.475 3.628 3.628 0 0 1-1.187.178Zm5.833-.889 1.84-6.106h1.797l-2.755 7.909c-.064.17-.146.353-.248.552a2.35 2.35 0 0 1-.393.565c-.165.182-.373.33-.622.445-.246.114-.544.17-.895.17-.153 0-.288-.01-.407-.03a5.107 5.107 0 0 1-.374-.083v-1.257c.042.004.09.006.146.006.06.004.11.006.152.006.246 0 .449-.03.61-.088a.803.803 0 0 0 .387-.273 1.52 1.52 0 0 0 .254-.483l.508-1.333Zm-.908-6.106 1.555 5.059.273 1.77-1.155.21-2.482-7.04h1.809Zm10.27 1.403V71h-1.675v-6.868h1.587l.088 1.403Zm2.089-1.448-.026 1.562a4.43 4.43 0 0 0-.641-.05c-.258 0-.484.035-.679.107a1.268 1.268 0 0 0-.489.298 1.317 1.317 0 0 0-.292.483 2.07 2.07 0 0 0-.114.635l-.362-.045c0-.436.045-.84.134-1.212.088-.373.218-.698.387-.978s.38-.495.635-.647a1.68 1.68 0 0 1 .888-.235c.093 0 .193.008.298.025.11.013.197.032.26.057Zm3.878 7.04c-.52 0-.988-.085-1.403-.254a3.08 3.08 0 0 1-1.06-.705 3.24 3.24 0 0 1-.666-1.06 3.693 3.693 0 0 1-.229-1.307v-.254c0-.53.076-1.01.229-1.441.152-.436.368-.81.647-1.124.28-.313.614-.554 1.003-.723.39-.17.819-.254 1.289-.254.486 0 .916.082 1.288.247.373.161.684.39.933.686.25.296.438.652.565 1.066.127.41.19.866.19 1.365v.705h-5.382v-1.156h3.732v-.127a2.022 2.022 0 0 0-.152-.73 1.166 1.166 0 0 0-.432-.533c-.194-.135-.446-.203-.755-.203-.25 0-.468.055-.654.165a1.312 1.312 0 0 0-.457.457 2.267 2.267 0 0 0-.266.698c-.06.271-.09.572-.09.902v.254c0 .287.039.554.115.8.08.245.197.459.35.64.156.178.342.318.558.42.22.097.47.146.749.146.351 0 .668-.068.952-.204a2.12 2.12 0 0 0 .749-.615l.844.876a2.8 2.8 0 0 1-.584.61 2.98 2.98 0 0 1-.876.475 3.628 3.628 0 0 1-1.187.178Zm5.586-5.675v8.189h-1.682v-9.51h1.555l.127 1.321Zm4.412 2.044v.133c0 .5-.06.963-.178 1.39a3.475 3.475 0 0 1-.508 1.111 2.412 2.412 0 0 1-.838.737c-.33.173-.71.26-1.142.26-.423 0-.792-.08-1.105-.241a2.274 2.274 0 0 1-.793-.698c-.216-.301-.39-.65-.52-1.048a7.8 7.8 0 0 1-.286-1.314v-.425c.063-.504.158-.96.285-1.371a3.78 3.78 0 0 1 .52-1.073 2.27 2.27 0 0 1 .788-.705c.313-.165.68-.247 1.098-.247.436 0 .819.082 1.149.247.334.166.616.403.844.711.229.31.4.678.514 1.105.115.427.172.903.172 1.428Zm-1.682.133v-.133c0-.305-.028-.586-.083-.844a2.265 2.265 0 0 0-.254-.686 1.266 1.266 0 0 0-.444-.463 1.253 1.253 0 0 0-.66-.165c-.258 0-.48.042-.667.127a1.169 1.169 0 0 0-.457.362 1.817 1.817 0 0 0-.28.558 3.427 3.427 0 0 0-.126.705v1.054c.038.313.112.594.222.844s.27.448.483.597c.215.148.495.222.837.222.258 0 .479-.058.66-.172.182-.114.33-.27.445-.47.114-.203.197-.435.247-.698.051-.262.077-.541.077-.838Zm2.608.007v-.134c0-.503.072-.966.216-1.39.144-.427.354-.797.629-1.11a2.828 2.828 0 0 1 1.009-.73c.398-.178.85-.267 1.358-.267.517 0 .974.089 1.371.267.402.173.741.416 1.016.73.275.313.485.683.629 1.11.143.424.215.887.215 1.39v.134c0 .5-.072.963-.215 1.39a3.296 3.296 0 0 1-.629 1.11 2.828 2.828 0 0 1-1.01.73c-.397.174-.852.261-1.364.261-.508 0-.963-.087-1.365-.26a2.815 2.815 0 0 1-1.015-.73 3.297 3.297 0 0 1-.629-1.111 4.331 4.331 0 0 1-.215-1.39Zm1.676-.134v.134c0 .3.03.582.09.844.058.262.15.493.272.692.123.199.282.355.476.47.2.11.436.165.711.165.27 0 .504-.055.698-.165.195-.115.354-.271.476-.47.127-.199.22-.43.28-.692.059-.262.089-.544.089-.844v-.134c0-.296-.03-.573-.09-.831a2.156 2.156 0 0 0-.279-.692 1.334 1.334 0 0 0-1.187-.654 1.317 1.317 0 0 0-1.174.654c-.123.199-.214.43-.273.692-.06.258-.089.535-.089.831Zm7.662-1.967V71h-1.676v-6.868h1.587l.089 1.403Zm2.088-1.448-.025 1.562a4.43 4.43 0 0 0-.641-.05c-.258 0-.485.035-.68.107a1.268 1.268 0 0 0-.488.298 1.318 1.318 0 0 0-.292.483 2.067 2.067 0 0 0-.114.635l-.362-.045c0-.436.044-.84.133-1.212.089-.373.218-.698.387-.978.17-.28.381-.495.635-.647a1.68 1.68 0 0 1 .889-.235c.093 0 .192.008.298.025.11.013.197.032.26.057Zm4.488.045v1.206h-3.936v-1.206h3.936Zm-2.882-1.689h1.682v6.576c0 .204.028.36.083.47.055.11.137.184.247.222.11.038.242.058.394.058.11 0 .212-.007.305-.02a3.95 3.95 0 0 0 .235-.038l.006 1.257c-.14.047-.298.085-.476.114-.174.03-.37.045-.59.045-.377 0-.707-.063-.99-.19a1.415 1.415 0 0 1-.66-.629c-.157-.292-.236-.677-.236-1.155v-6.71Zm7.084 8.684c-.52 0-.988-.085-1.403-.254a3.08 3.08 0 0 1-1.06-.705 3.241 3.241 0 0 1-.666-1.06 3.695 3.695 0 0 1-.229-1.307v-.254c0-.53.077-1.01.229-1.441.152-.436.368-.81.647-1.124a2.85 2.85 0 0 1 1.003-.723c.39-.17.82-.254 1.289-.254.486 0 .916.082 1.288.247.373.161.684.39.934.686.25.296.438.652.564 1.066.127.41.19.866.19 1.365v.705h-5.382v-1.156h3.733v-.127a2.024 2.024 0 0 0-.153-.73 1.167 1.167 0 0 0-.431-.533c-.195-.135-.447-.203-.756-.203-.25 0-.468.055-.654.165a1.312 1.312 0 0 0-.457.457 2.264 2.264 0 0 0-.266.698c-.06.271-.09.572-.09.902v.254c0 .287.039.554.115.8.08.245.197.459.35.64a1.7 1.7 0 0 0 .558.42c.22.097.47.146.749.146.351 0 .668-.068.952-.204a2.12 2.12 0 0 0 .749-.615l.844.876a2.798 2.798 0 0 1-.584.61 2.98 2.98 0 0 1-.876.475 3.628 3.628 0 0 1-1.187.178Zm8.03-1.587v-8.29h1.689V71h-1.524l-.165-1.46Zm-4.412-1.892v-.133c0-.525.06-1 .178-1.428.123-.432.3-.802.533-1.11.233-.31.514-.549.845-.718a2.48 2.48 0 0 1 1.136-.254c.41 0 .768.082 1.073.247.308.166.57.4.787.705.22.305.395.667.526 1.086.132.414.227.871.286 1.37v.362c-.06.487-.154.933-.285 1.34a3.804 3.804 0 0 1-.527 1.066c-.216.3-.478.533-.787.698-.31.165-.671.248-1.086.248-.419 0-.795-.087-1.13-.26a2.483 2.483 0 0 1-.844-.73 3.516 3.516 0 0 1-.527-1.105 5.118 5.118 0 0 1-.178-1.384Zm1.682-.133v.133c0 .297.026.574.077.832.05.258.133.487.247.685a1.3 1.3 0 0 0 .438.458c.182.11.402.165.66.165.33 0 .601-.072.813-.216.216-.148.383-.35.501-.603a2.77 2.77 0 0 0 .229-.87v-.996a2.819 2.819 0 0 0-.133-.705 1.67 1.67 0 0 0-.292-.559 1.294 1.294 0 0 0-.457-.368 1.46 1.46 0 0 0-.648-.133c-.258 0-.478.057-.66.171-.182.11-.33.265-.444.464-.115.198-.2.43-.254.692-.051.262-.077.545-.077.85Zm10.919-1.879h.945c.335 0 .61-.057.826-.171.22-.119.382-.28.488-.483.11-.207.165-.446.165-.717 0-.267-.048-.497-.146-.692a1.009 1.009 0 0 0-.444-.457c-.195-.11-.444-.165-.75-.165-.244 0-.47.049-.678.146a1.206 1.206 0 0 0-.489.42 1.13 1.13 0 0 0-.178.64H93.58c0-.5.131-.937.394-1.314a2.71 2.71 0 0 1 1.079-.895 3.482 3.482 0 0 1 1.517-.324c.61 0 1.142.102 1.6.305.46.2.818.493 1.072.883.258.389.387.871.387 1.447 0 .275-.065.55-.196.825a2.26 2.26 0 0 1-.565.736 2.912 2.912 0 0 1-.908.527 3.526 3.526 0 0 1-1.225.197h-1.212v-.908Zm0 1.295v-.895h1.212c.52 0 .971.061 1.352.184.385.119.702.288.952.508.25.216.434.468.552.755.123.288.184.597.184.927 0 .432-.08.817-.24 1.155-.162.335-.388.618-.68.851-.288.233-.626.41-1.016.533-.389.119-.81.178-1.263.178-.393 0-.776-.053-1.149-.159-.368-.11-.7-.273-.996-.489a2.413 2.413 0 0 1-.705-.825 2.487 2.487 0 0 1-.26-1.161h1.682c0 .254.061.48.184.679.127.199.3.355.52.47.225.11.477.165.756.165.309 0 .573-.055.793-.165.225-.115.396-.275.515-.483.118-.211.177-.463.177-.755 0-.347-.065-.629-.197-.844a1.16 1.16 0 0 0-.564-.477 2.217 2.217 0 0 0-.864-.152h-.945Zm12.009.698v1.32h-6.658l-.07-1.015 3.916-6.176h1.34l-1.448 2.456-2.101 3.415h5.021Zm-1.098-5.871V71h-1.682v-9.242h1.682Zm3.085 0h1.511l2.526 6.957 2.52-6.957h1.517L114.158 71h-1.212l-3.428-9.242Zm-.762 0h1.479l.267 6.392V71h-1.746v-9.242Zm8.113 0h1.485V71h-1.746v-2.85l.261-6.392Zm4.024 0h1.511l2.526 6.957 2.52-6.957h1.517L125.533 71h-1.212l-3.428-9.242Zm-.762 0h1.479l.267 6.392V71h-1.746v-9.242Zm8.113 0h1.485V71h-1.746v-2.85l.261-6.392Zm8.15 2.374V71h-1.682v-6.868h1.682Zm-1.796-1.797a.83.83 0 0 1 .254-.622c.173-.165.406-.247.698-.247.292 0 .522.082.692.247.173.165.26.373.26.622 0 .246-.087.451-.26.616-.17.165-.4.248-.692.248-.292 0-.525-.083-.698-.248a.823.823 0 0 1-.254-.616Zm5.04 3.263V71h-1.676v-6.868h1.574l.102 1.466Zm-.267 1.72h-.495c.004-.499.072-.952.203-1.358.131-.406.315-.755.552-1.047a2.49 2.49 0 0 1 .857-.673c.33-.157.699-.235 1.105-.235.33 0 .628.046.895.14.266.093.495.24.685.444.195.203.343.47.445.8.105.326.158.728.158 1.206V71h-1.688v-4.418c0-.313-.047-.56-.14-.743a.78.78 0 0 0-.393-.387 1.536 1.536 0 0 0-.629-.114 1.4 1.4 0 0 0-.679.159c-.19.101-.351.243-.482.425a2.075 2.075 0 0 0-.292.628 2.775 2.775 0 0 0-.102.768Zm12.924-4.157L149.661 71h-1.848l3.454-9.242h1.18l-.152 1.403ZM154.498 71l-2.647-7.84-.159-1.402h1.187L156.351 71h-1.853Zm-.121-3.434v1.377h-4.958v-1.377h4.958Zm2.926-5.808h3.358c.703 0 1.306.106 1.809.317.504.212.891.525 1.162.94.271.414.406.924.406 1.53 0 .478-.085.892-.254 1.244a2.419 2.419 0 0 1-.717.882 3.518 3.518 0 0 1-1.079.558l-.546.28h-2.964l-.013-1.378h2.215c.36 0 .658-.063.895-.19s.415-.303.533-.527a1.57 1.57 0 0 0 .184-.768c0-.309-.059-.576-.177-.8a1.21 1.21 0 0 0-.54-.527c-.241-.122-.546-.184-.914-.184h-1.612V71h-1.746v-9.242ZM162.521 71l-2.139-4.139 1.847-.006 2.165 4.056V71h-1.873Zm3.047-9.242h3.358c.702 0 1.305.106 1.809.317.503.212.891.525 1.161.94.271.414.407.924.407 1.53 0 .478-.085.892-.254 1.244a2.429 2.429 0 0 1-.717.882 3.524 3.524 0 0 1-1.08.558l-.545.28h-2.965l-.013-1.378h2.216c.36 0 .658-.063.895-.19s.415-.303.533-.527a1.57 1.57 0 0 0 .184-.768c0-.309-.059-.576-.178-.8a1.202 1.202 0 0 0-.539-.527c-.241-.122-.546-.184-.914-.184h-1.613V71h-1.745v-9.242ZM170.786 71l-2.14-4.139 1.848-.006 2.164 4.056V71h-1.872ZM16.366 92.144v.476c0 .698-.093 1.327-.28 1.885a4.078 4.078 0 0 1-.792 1.416c-.343.39-.752.688-1.226.895-.474.207-1 .311-1.58.311a3.914 3.914 0 0 1-1.574-.311 3.523 3.523 0 0 1-1.232-.895 4.1 4.1 0 0 1-.806-1.416c-.19-.558-.286-1.187-.286-1.885v-.476c0-.702.096-1.33.286-1.885.19-.555.457-1.026.8-1.416a3.43 3.43 0 0 1 1.225-.901 3.914 3.914 0 0 1 1.574-.311c.58 0 1.107.103 1.58.31a3.43 3.43 0 0 1 1.226.902c.347.39.613.861.8 1.416.19.554.285 1.183.285 1.885Zm-1.764.476v-.489c0-.503-.047-.945-.14-1.326a2.875 2.875 0 0 0-.413-.972 1.756 1.756 0 0 0-.672-.59 1.961 1.961 0 0 0-.902-.203c-.338 0-.639.068-.901.203a1.785 1.785 0 0 0-.66.59 2.968 2.968 0 0 0-.42.972c-.092.38-.139.823-.139 1.326v.49c0 .499.046.94.14 1.326.097.385.237.71.419.977.186.263.41.462.672.597.263.135.563.203.902.203.338 0 .639-.068.901-.203.263-.135.483-.334.66-.597.182-.266.32-.592.413-.977.093-.385.14-.828.14-1.327Zm4.792-1.085V97h-1.676v-6.868h1.587l.089 1.403Zm2.088-1.448-.025 1.562a4.426 4.426 0 0 0-.641-.05c-.258 0-.485.035-.68.107a1.268 1.268 0 0 0-.488.298 1.318 1.318 0 0 0-.292.483 2.067 2.067 0 0 0-.114.635l-.362-.045c0-.436.044-.84.133-1.212.09-.373.218-.698.387-.978.17-.28.381-.495.635-.647a1.68 1.68 0 0 1 .889-.235c.093 0 .192.008.298.025.11.013.197.032.26.057Zm4.488 5.453v-3.167c0-.233-.04-.434-.12-.604a.872.872 0 0 0-.369-.393c-.165-.093-.374-.14-.628-.14-.224 0-.421.038-.59.115a.871.871 0 0 0-.381.323.837.837 0 0 0-.134.47h-1.682c0-.284.068-.552.204-.806.135-.258.328-.487.577-.686.254-.203.557-.362.908-.476a3.887 3.887 0 0 1 1.193-.171c.52 0 .984.089 1.39.267.41.173.732.435.965.787.237.35.356.793.356 1.326v2.996c0 .343.02.637.063.883.047.24.114.45.203.628V97h-1.707a2.53 2.53 0 0 1-.184-.66 5.177 5.177 0 0 1-.064-.8Zm.235-2.723.013.997h-1.06c-.263 0-.493.027-.692.082-.2.05-.362.127-.489.228a.926.926 0 0 0-.286.356 1.08 1.08 0 0 0-.095.463c0 .17.038.322.114.457.08.136.195.244.343.324.153.076.33.114.533.114.297 0 .555-.059.775-.177.22-.123.391-.271.514-.445a.96.96 0 0 0 .197-.495l.482.724c-.059.173-.148.357-.266.552a2.49 2.49 0 0 1-.457.546c-.187.17-.41.309-.673.419a2.35 2.35 0 0 1-.914.165c-.445 0-.843-.089-1.194-.267a2.116 2.116 0 0 1-.831-.73 1.874 1.874 0 0 1-.305-1.053c0-.364.068-.686.203-.965a1.85 1.85 0 0 1 .603-.705c.267-.194.597-.34.99-.438a5.54 5.54 0 0 1 1.365-.152h1.13Zm4.609-1.219V97h-1.676v-6.868h1.574l.102 1.466Zm-.267 1.72h-.495c.004-.499.072-.952.203-1.358.131-.406.315-.755.552-1.047.241-.292.527-.517.857-.673.33-.157.698-.235 1.105-.235.33 0 .628.046.895.14.266.093.495.24.685.444.195.203.343.47.445.8.105.326.158.728.158 1.206V97h-1.688v-4.418c0-.313-.047-.56-.14-.743a.779.779 0 0 0-.394-.387 1.532 1.532 0 0 0-.628-.114 1.4 1.4 0 0 0-.68.159c-.19.101-.35.243-.482.425a2.094 2.094 0 0 0-.292.628 2.786 2.786 0 0 0-.101.768Zm10.251-3.186h1.524v6.658c0 .623-.136 1.15-.407 1.581a2.536 2.536 0 0 1-1.123.99c-.482.229-1.043.343-1.682.343a3.9 3.9 0 0 1-.895-.114 3.618 3.618 0 0 1-.92-.362 2.278 2.278 0 0 1-.73-.628l.755-.99c.228.266.486.467.774.602.288.14.599.21.933.21.339 0 .627-.064.864-.19.24-.123.425-.305.552-.546.131-.237.197-.53.197-.876V91.7l.158-1.568Zm-4.64 3.516v-.133c0-.525.064-1 .19-1.428.128-.432.31-.802.547-1.11.24-.31.53-.549.87-.718.342-.17.727-.254 1.154-.254.453 0 .834.082 1.143.247.313.166.571.4.774.705.208.305.369.667.483 1.086.118.414.21.871.273 1.37v.362c-.06.487-.155.933-.286 1.34a3.892 3.892 0 0 1-.508 1.066c-.211.3-.474.533-.787.698-.313.165-.681.248-1.104.248-.423 0-.804-.087-1.143-.26a2.565 2.565 0 0 1-.87-.73 3.46 3.46 0 0 1-.545-1.105 4.8 4.8 0 0 1-.19-1.384Zm1.676-.133v.133c0 .297.03.574.089.832.06.258.15.487.273.685.123.195.277.347.463.458.186.11.409.165.667.165.347 0 .63-.072.85-.216.225-.148.394-.35.508-.603.119-.258.195-.548.229-.87v-.996a3.014 3.014 0 0 0-.14-.705 1.739 1.739 0 0 0-.286-.559 1.267 1.267 0 0 0-.47-.368 1.594 1.594 0 0 0-.679-.133 1.27 1.27 0 0 0-.666.171 1.33 1.33 0 0 0-.47.464c-.123.198-.216.43-.28.692-.058.262-.088.545-.088.85Zm9.083 3.612c-.52 0-.988-.085-1.402-.254a3.08 3.08 0 0 1-1.06-.705 3.24 3.24 0 0 1-.667-1.06 3.693 3.693 0 0 1-.228-1.307v-.254c0-.53.076-1.01.228-1.441.152-.436.368-.81.648-1.124.279-.313.613-.554 1.002-.723.39-.17.82-.254 1.29-.254.486 0 .915.082 1.288.247.372.161.683.39.933.686.25.296.438.652.565 1.066.127.41.19.866.19 1.365v.705h-5.383v-1.156h3.733v-.127a2.024 2.024 0 0 0-.153-.73 1.166 1.166 0 0 0-.431-.533c-.195-.135-.447-.203-.756-.203-.25 0-.467.055-.654.165a1.312 1.312 0 0 0-.457.457 2.267 2.267 0 0 0-.266.698c-.06.271-.089.572-.089.902v.254c0 .287.038.554.114.8.08.245.197.459.35.64.156.178.342.318.558.42.22.097.47.146.749.146.351 0 .669-.068.952-.204a2.12 2.12 0 0 0 .75-.615l.844.876a2.8 2.8 0 0 1-.584.61 2.98 2.98 0 0 1-.877.475 3.629 3.629 0 0 1-1.187.178Zm7.23-6.995h1.689v7.376c0 .487-.089.9-.267 1.238a1.745 1.745 0 0 1-.755.768c-.33.173-.734.26-1.212.26-.148 0-.297-.008-.445-.025a3.068 3.068 0 0 1-.438-.083l.007-1.295c.093.017.188.03.285.038.098.013.195.02.292.02a.988.988 0 0 0 .457-.096.613.613 0 0 0 .286-.298 1.18 1.18 0 0 0 .102-.527v-7.376Zm-.14-1.797c0-.25.085-.457.255-.622.173-.165.406-.247.698-.247.292 0 .523.082.692.247.173.165.26.373.26.622 0 .246-.087.451-.26.616-.17.165-.4.248-.692.248-.292 0-.525-.083-.698-.248a.825.825 0 0 1-.254-.616Zm7.472 7.034v-5.237h1.688V97h-1.586l-.102-1.631Zm.216-1.422.52-.013c0 .461-.05.887-.152 1.276-.102.39-.26.728-.476 1.016a2.21 2.21 0 0 1-.806.666c-.326.157-.711.235-1.155.235-.34 0-.648-.047-.927-.14a1.886 1.886 0 0 1-.724-.45 2.115 2.115 0 0 1-.463-.794c-.11-.326-.165-.717-.165-1.174v-4.437h1.675v4.45c0 .228.026.419.077.57.055.153.129.278.222.375.097.093.21.161.336.204.131.038.271.057.42.057.405 0 .725-.08.958-.242a1.36 1.36 0 0 0 .508-.66c.101-.28.152-.592.152-.94Zm4.735-3.815V97h-1.682v-6.868h1.682Zm-1.796-1.797c0-.25.084-.457.254-.622.173-.165.406-.247.698-.247.292 0 .523.082.692.247.173.165.26.373.26.622 0 .246-.087.451-.26.616-.17.165-.4.248-.692.248-.292 0-.525-.083-.698-.248a.825.825 0 0 1-.254-.616Zm6.214 7.472a1.4 1.4 0 0 0 .635-.14c.186-.093.334-.224.444-.394.114-.169.176-.366.184-.59h1.58c-.008.466-.139.882-.393 1.25-.254.369-.592.66-1.015.877a3.081 3.081 0 0 1-1.41.317c-.528 0-.99-.089-1.383-.267a2.695 2.695 0 0 1-.984-.742 3.287 3.287 0 0 1-.584-1.105 4.616 4.616 0 0 1-.19-1.346v-.203c0-.478.063-.926.19-1.345.131-.42.326-.787.584-1.105.262-.317.59-.565.984-.742.393-.178.852-.267 1.377-.267.554 0 1.041.108 1.46.324.423.215.753.52.99.914.242.393.366.857.375 1.39h-1.58a1.52 1.52 0 0 0-.166-.66 1.213 1.213 0 0 0-.431-.47 1.239 1.239 0 0 0-.68-.178c-.283 0-.52.06-.71.178a1.227 1.227 0 0 0-.439.489 2.411 2.411 0 0 0-.215.685c-.038.25-.057.512-.057.787v.204c0 .279.019.545.057.8.042.253.114.482.215.685.106.199.252.357.438.476.19.118.432.178.724.178Zm7.046 1.32c-.52 0-.988-.085-1.403-.254a3.079 3.079 0 0 1-1.06-.705 3.24 3.24 0 0 1-.666-1.06 3.695 3.695 0 0 1-.229-1.307v-.254c0-.53.076-1.01.229-1.441.152-.436.368-.81.647-1.124a2.85 2.85 0 0 1 1.003-.723c.39-.17.819-.254 1.289-.254.486 0 .916.082 1.288.247.373.161.684.39.933.686.25.296.438.652.565 1.066.127.41.19.866.19 1.365v.705h-5.382v-1.156h3.732v-.127a2.024 2.024 0 0 0-.152-.73 1.166 1.166 0 0 0-.432-.533c-.194-.135-.446-.203-.755-.203-.25 0-.468.055-.654.165a1.312 1.312 0 0 0-.457.457 2.264 2.264 0 0 0-.266.698c-.06.271-.09.572-.09.902v.254c0 .287.039.554.115.8.08.245.197.459.349.64.157.178.343.318.559.42.22.097.47.146.749.146.35 0 .668-.068.952-.204a2.12 2.12 0 0 0 .749-.615l.844.876a2.798 2.798 0 0 1-.584.61 2.981 2.981 0 0 1-.876.475 3.63 3.63 0 0 1-1.187.178Zm8.925-6.995V97h-1.682v-6.868h1.682Zm-1.797-1.797c0-.25.085-.457.254-.622.174-.165.407-.247.699-.247s.522.082.692.247c.173.165.26.373.26.622 0 .246-.087.451-.26.616-.17.165-.4.248-.692.248-.292 0-.525-.083-.699-.248a.825.825 0 0 1-.254-.616Zm7.173 6.786a.683.683 0 0 0-.114-.387c-.076-.114-.22-.218-.432-.311-.207-.097-.512-.189-.914-.273a6.75 6.75 0 0 1-.984-.286 3.182 3.182 0 0 1-.774-.412 1.876 1.876 0 0 1-.508-.578 1.633 1.633 0 0 1-.177-.774c0-.284.06-.55.184-.8.122-.254.3-.476.533-.667.233-.194.516-.347.85-.457a3.48 3.48 0 0 1 1.13-.171c.584 0 1.086.095 1.505.285.423.191.747.453.97.788.225.33.337.702.337 1.117h-1.675a.98.98 0 0 0-.127-.495.872.872 0 0 0-.375-.356c-.17-.093-.383-.14-.641-.14-.233 0-.43.039-.59.115a.863.863 0 0 0-.356.298.726.726 0 0 0-.12.406c0 .11.02.21.063.299.046.084.12.163.222.235.102.072.24.137.413.196.178.06.395.117.654.172.512.101.958.237 1.339.406.385.165.685.385.901.66.216.275.324.627.324 1.054 0 .305-.066.584-.197.838-.131.25-.321.467-.571.654-.25.186-.548.332-.895.438a4.178 4.178 0 0 1-1.174.152c-.63 0-1.164-.112-1.6-.337-.436-.228-.766-.516-.99-.863a2.001 2.001 0 0 1-.337-1.092h1.606c.013.267.085.48.216.642.131.16.296.277.495.349.203.067.417.101.641.101.254 0 .468-.034.641-.101a.915.915 0 0 0 .394-.286.696.696 0 0 0 .133-.419Zm5.853-1.485v-.134c0-.503.072-.966.216-1.39.144-.427.353-.797.628-1.11a2.828 2.828 0 0 1 1.01-.73c.397-.178.85-.267 1.358-.267.516 0 .973.089 1.371.267.402.173.74.416 1.015.73.276.313.485.683.629 1.11.144.424.216.887.216 1.39v.134c0 .5-.072.963-.216 1.39a3.283 3.283 0 0 1-.629 1.11 2.825 2.825 0 0 1-1.009.73c-.398.174-.852.261-1.365.261-.507 0-.962-.087-1.364-.26a2.816 2.816 0 0 1-1.016-.73 3.295 3.295 0 0 1-.628-1.111 4.331 4.331 0 0 1-.216-1.39Zm1.676-.134v.134c0 .3.03.582.088.844.06.262.15.493.273.692.123.199.282.355.477.47.198.11.435.165.71.165a1.4 1.4 0 0 0 .699-.165c.194-.115.353-.271.476-.47.127-.199.22-.43.279-.692.059-.262.089-.544.089-.844v-.134c0-.296-.03-.573-.089-.831a2.15 2.15 0 0 0-.279-.692 1.337 1.337 0 0 0-1.187-.654 1.314 1.314 0 0 0-1.175.654 2.26 2.26 0 0 0-.272.692c-.06.258-.09.535-.09.831Zm7.63-1.904V97h-1.676v-6.868h1.574l.102 1.466Zm-.267 1.72h-.495c.004-.499.072-.952.203-1.358.131-.406.315-.755.552-1.047.241-.292.527-.517.857-.673.33-.157.698-.235 1.105-.235.33 0 .628.046.895.14.266.093.495.24.685.444.195.203.343.47.444.8.106.326.159.728.159 1.206V97h-1.688v-4.418c0-.313-.047-.56-.14-.743a.78.78 0 0 0-.393-.387 1.536 1.536 0 0 0-.629-.114 1.4 1.4 0 0 0-.679.159 1.407 1.407 0 0 0-.483.425 2.124 2.124 0 0 0-.292.628 2.813 2.813 0 0 0-.101.768Zm12.371-3.186v1.206h-3.935v-1.206h3.935Zm-2.881-1.689h1.682v6.576c0 .204.027.36.082.47.055.11.138.184.248.222.11.038.241.058.393.058.11 0 .212-.007.305-.02.093-.012.171-.025.235-.038l.006 1.257a3.125 3.125 0 0 1-.476.114c-.173.03-.37.045-.59.045-.377 0-.707-.063-.99-.19a1.41 1.41 0 0 1-.66-.629c-.157-.292-.235-.677-.235-1.155v-6.71Zm5.643-1.193V97h-1.682v-9.75h1.682Zm-.267 6.068h-.495c0-.478.063-.918.19-1.32s.307-.751.54-1.047c.233-.3.51-.533.832-.699a2.35 2.35 0 0 1 1.079-.247c.338 0 .645.049.92.146.279.093.518.243.717.45.199.208.352.479.457.813.11.33.165.732.165 1.206V97h-1.688v-4.393c0-.317-.047-.567-.14-.749a.832.832 0 0 0-.4-.4 1.456 1.456 0 0 0-.628-.12c-.271 0-.504.053-.698.159a1.33 1.33 0 0 0-.483.425 2.078 2.078 0 0 0-.279.628 3.173 3.173 0 0 0-.089.768Zm8.969 3.809c-.52 0-.988-.085-1.402-.254a3.081 3.081 0 0 1-1.061-.705 3.258 3.258 0 0 1-.666-1.06 3.702 3.702 0 0 1-.229-1.307v-.254c0-.53.077-1.01.229-1.441.152-.436.368-.81.647-1.124a2.86 2.86 0 0 1 1.003-.723 3.2 3.2 0 0 1 1.289-.254c.487 0 .916.082 1.289.247.372.161.683.39.933.686.249.296.438.652.565 1.066.127.41.19.866.19 1.365v.705h-5.383v-1.156h3.733v-.127a2.037 2.037 0 0 0-.153-.73 1.169 1.169 0 0 0-.431-.533c-.195-.135-.447-.203-.756-.203-.249 0-.467.055-.654.165a1.314 1.314 0 0 0-.457.457 2.272 2.272 0 0 0-.266.698c-.059.271-.089.572-.089.902v.254c0 .287.038.554.114.8.081.245.197.459.349.64.157.178.343.318.559.42.22.097.47.146.749.146.351 0 .669-.068.952-.204.288-.14.538-.344.749-.615l.844.876a2.789 2.789 0 0 1-.584.61 2.975 2.975 0 0 1-.876.475 3.623 3.623 0 0 1-1.187.178Zm8.817-5.586V97h-1.676v-6.868h1.581l.095 1.409Zm-.247 1.777h-.514c0-.478.057-.918.171-1.32.118-.402.292-.751.52-1.047.229-.3.51-.533.845-.699.338-.165.73-.247 1.174-.247.309 0 .592.046.851.14.258.088.48.23.666.425.191.19.337.44.438.749.102.305.152.67.152 1.098V97h-1.675v-4.412c0-.321-.047-.573-.14-.755a.755.755 0 0 0-.387-.38 1.48 1.48 0 0 0-.61-.115 1.38 1.38 0 0 0-.679.159c-.186.101-.34.243-.463.425a2.037 2.037 0 0 0-.267.628 3.394 3.394 0 0 0-.082.768Zm4.176-.31-.691.126c.004-.431.063-.835.177-1.212a3.04 3.04 0 0 1 .502-.997c.224-.287.501-.512.831-.673.335-.165.72-.247 1.156-.247.338 0 .643.049.914.146.275.093.51.243.704.45.195.204.343.468.445.794.105.326.158.724.158 1.193V97h-1.688v-4.418c0-.334-.047-.59-.14-.768a.73.73 0 0 0-.387-.368 1.517 1.517 0 0 0-.597-.108 1.256 1.256 0 0 0-1.041.489c-.114.152-.201.33-.26.533a2.422 2.422 0 0 0-.083.647Zm8.786 4.119a3.68 3.68 0 0 1-1.403-.254 3.077 3.077 0 0 1-1.06-.705 3.244 3.244 0 0 1-.667-1.06 3.701 3.701 0 0 1-.228-1.307v-.254c0-.53.076-1.01.228-1.441.153-.436.368-.81.648-1.124a2.842 2.842 0 0 1 1.003-.723c.389-.17.818-.254 1.288-.254.487 0 .916.082 1.289.247.372.161.683.39.933.686.25.296.438.652.565 1.066.127.41.19.866.19 1.365v.705h-5.383v-1.156h3.733v-.127a2.036 2.036 0 0 0-.152-.73 1.17 1.17 0 0 0-.432-.533c-.195-.135-.447-.203-.756-.203a1.26 1.26 0 0 0-.653.165 1.306 1.306 0 0 0-.457.457 2.247 2.247 0 0 0-.267.698c-.059.271-.089.572-.089.902v.254c0 .287.038.554.114.8.081.245.197.459.35.64.156.178.342.318.558.42.22.097.47.146.749.146.351 0 .669-.068.952-.204.288-.14.538-.344.749-.615l.845.876a3 3 0 0 1-1.46 1.085 3.632 3.632 0 0 1-1.187.178Zm5.554-5.529V97h-1.676v-6.868h1.574l.102 1.466Zm-.267 1.72h-.495c.004-.499.072-.952.203-1.358.131-.406.315-.755.552-1.047a2.49 2.49 0 0 1 .857-.673c.33-.157.699-.235 1.105-.235.33 0 .628.046.895.14.267.093.495.24.685.444.195.203.343.47.445.8.106.326.158.728.158 1.206V97h-1.688v-4.418c0-.313-.047-.56-.14-.743a.78.78 0 0 0-.393-.387 1.533 1.533 0 0 0-.629-.114 1.4 1.4 0 0 0-.679.159c-.19.101-.351.243-.482.425a2.075 2.075 0 0 0-.292.628 2.775 2.775 0 0 0-.102.768Zm9.972 2.05v-5.236h1.689V97h-1.587l-.102-1.631Zm.216-1.421.521-.013c0 .461-.051.887-.153 1.276-.101.39-.26.728-.476 1.016-.211.283-.48.505-.806.666-.326.157-.711.235-1.155.235-.339 0-.648-.047-.927-.14a1.897 1.897 0 0 1-.724-.45 2.126 2.126 0 0 1-.463-.794c-.11-.326-.165-.717-.165-1.174v-4.437h1.676v4.45c0 .228.025.419.076.57.055.153.129.278.222.375.098.093.21.161.337.204.131.038.27.057.419.057.406 0 .725-.08.958-.242.237-.165.406-.385.508-.66.101-.28.152-.592.152-.94ZM13.72 41.6c0-.177-.028-.336-.083-.476a.882.882 0 0 0-.286-.387 2.282 2.282 0 0 0-.578-.343 8.051 8.051 0 0 0-.952-.355 10.541 10.541 0 0 1-1.206-.457c-.372-.17-.7-.366-.984-.59a2.516 2.516 0 0 1-.653-.775 2.168 2.168 0 0 1-.235-1.028c0-.38.08-.728.24-1.041.166-.313.399-.582.7-.806.3-.229.653-.404 1.06-.527a4.73 4.73 0 0 1 1.358-.184c.685 0 1.278.125 1.777.374.504.25.893.589 1.168 1.016.275.427.413.908.413 1.44h-1.74c0-.287-.061-.54-.184-.76-.118-.22-.3-.394-.546-.521-.241-.127-.546-.19-.914-.19-.355 0-.651.052-.888.158a1.2 1.2 0 0 0-.527.432 1.122 1.122 0 0 0-.172.609c0 .17.04.322.12.457.081.131.202.256.363.374.16.115.36.223.596.324.242.098.52.195.838.292.508.153.952.322 1.333.508.385.186.705.398.959.635.258.237.45.503.577.8.132.296.197.632.197 1.009 0 .398-.078.753-.235 1.066-.156.313-.38.58-.673.8-.292.22-.643.387-1.053.502a5.042 5.042 0 0 1-1.365.171c-.448 0-.893-.06-1.333-.178a4.054 4.054 0 0 1-1.187-.546 2.785 2.785 0 0 1-.85-.926c-.212-.377-.318-.817-.318-1.32h1.752c0 .291.046.54.14.748.097.203.232.37.406.502.178.127.385.22.622.279.237.06.493.089.768.089.356 0 .648-.049.876-.146.233-.102.406-.241.52-.419.119-.178.178-.38.178-.61Zm4.614-7.35V44h-1.682v-9.75h1.682Zm-.267 6.068h-.495c0-.478.064-.918.19-1.32a3.27 3.27 0 0 1 .54-1.047c.233-.3.51-.534.832-.699a2.354 2.354 0 0 1 1.079-.247c.338 0 .645.048.92.146.28.093.519.243.718.45.198.208.35.479.457.813.11.33.165.732.165 1.206V44h-1.689v-4.393c0-.317-.046-.567-.14-.749a.834.834 0 0 0-.4-.4 1.46 1.46 0 0 0-.628-.12c-.27 0-.503.053-.698.159a1.331 1.331 0 0 0-.482.425 2.074 2.074 0 0 0-.28.628c-.059.237-.089.493-.089.768Zm8.97 3.809c-.52 0-.988-.085-1.403-.254a3.08 3.08 0 0 1-1.06-.704 3.241 3.241 0 0 1-.667-1.06 3.695 3.695 0 0 1-.228-1.308v-.254c0-.53.076-1.01.228-1.441.153-.436.368-.81.648-1.124a2.85 2.85 0 0 1 1.003-.723c.389-.17.819-.254 1.288-.254.487 0 .916.082 1.289.247.372.161.683.39.933.686.25.296.438.652.565 1.066.127.41.19.866.19 1.365v.705H24.44v-1.155h3.733v-.127a2.024 2.024 0 0 0-.152-.73 1.167 1.167 0 0 0-.432-.534c-.195-.135-.447-.203-.755-.203-.25 0-.468.055-.654.165a1.312 1.312 0 0 0-.457.457 2.264 2.264 0 0 0-.267.698c-.06.271-.089.572-.089.902v.254c0 .288.038.554.114.8.08.245.197.459.35.64a1.7 1.7 0 0 0 .558.42c.22.097.47.146.75.146.35 0 .668-.068.951-.204a2.12 2.12 0 0 0 .75-.615l.844.876a2.798 2.798 0 0 1-.584.61 2.98 2.98 0 0 1-.876.475 3.628 3.628 0 0 1-1.187.178Zm8.924-9.877V44H34.28v-9.75h1.682Zm3.377 2.882V44h-1.682v-6.868h1.682Zm-1.796-1.797c0-.25.085-.457.254-.622.173-.165.406-.247.698-.247.292 0 .523.082.692.247.173.165.26.373.26.622 0 .246-.087.451-.26.616-.17.165-.4.248-.692.248-.292 0-.525-.083-.698-.248a.825.825 0 0 1-.254-.616Zm5.675 7.395 1.6-5.598h1.751L44.213 44h-1.066l.07-1.27Zm-1.168-5.598 1.618 5.611.058 1.257h-1.073l-2.361-6.868h1.758Zm8.398 6.995c-.52 0-.988-.085-1.403-.254a3.08 3.08 0 0 1-1.06-.704 3.24 3.24 0 0 1-.667-1.06 3.693 3.693 0 0 1-.228-1.308v-.254c0-.53.076-1.01.228-1.441.153-.436.368-.81.648-1.124.28-.313.613-.554 1.003-.723.39-.17.819-.254 1.288-.254.487 0 .916.082 1.289.247.372.161.683.39.933.686.25.296.438.652.565 1.066.127.41.19.866.19 1.365v.705h-5.382v-1.155h3.732v-.127a2.024 2.024 0 0 0-.152-.73 1.166 1.166 0 0 0-.432-.534c-.195-.135-.446-.203-.755-.203-.25 0-.468.055-.654.165a1.312 1.312 0 0 0-.457.457 2.267 2.267 0 0 0-.267.698c-.059.271-.089.572-.089.902v.254c0 .288.038.554.115.8.08.245.196.459.349.64.156.178.343.318.558.42.22.097.47.146.75.146.35 0 .668-.068.952-.204a2.12 2.12 0 0 0 .748-.615l.845.876a2.8 2.8 0 0 1-.584.61 2.98 2.98 0 0 1-.876.475 3.629 3.629 0 0 1-1.187.178Zm7.687-2.006a.682.682 0 0 0-.114-.387c-.077-.114-.22-.218-.432-.311-.208-.098-.512-.189-.914-.273a6.758 6.758 0 0 1-.984-.286 3.184 3.184 0 0 1-.774-.412 1.875 1.875 0 0 1-.508-.578 1.633 1.633 0 0 1-.178-.774c0-.284.061-.55.184-.8.123-.254.3-.476.533-.667.233-.194.517-.347.85-.457a3.48 3.48 0 0 1 1.13-.171c.585 0 1.086.095 1.505.285.423.191.747.453.971.788.225.33.337.702.337 1.117h-1.676a.98.98 0 0 0-.127-.495.872.872 0 0 0-.374-.356c-.17-.093-.384-.14-.642-.14-.232 0-.43.039-.59.115a.863.863 0 0 0-.355.298.726.726 0 0 0-.121.406c0 .11.021.21.064.299.046.084.12.163.222.235.101.072.239.137.412.196.178.06.396.117.654.172.512.101.959.237 1.34.406.385.165.685.385.9.66.217.275.325.627.325 1.054 0 .305-.066.584-.197.838-.132.25-.322.467-.572.654-.25.186-.548.332-.895.438a4.178 4.178 0 0 1-1.174.152c-.63 0-1.164-.112-1.6-.337-.435-.228-.766-.516-.99-.863a2.002 2.002 0 0 1-.336-1.092h1.606c.013.267.084.48.216.642.13.16.296.277.495.349.203.067.416.101.64.101.255 0 .468-.034.642-.101A.916.916 0 0 0 58 42.54a.696.696 0 0 0 .133-.419Zm5.852-1.485v-.134c0-.503.072-.967.216-1.39.144-.427.353-.797.629-1.11a2.828 2.828 0 0 1 1.009-.73c.398-.178.85-.267 1.358-.267.517 0 .974.089 1.371.267.402.173.74.416 1.016.73.275.313.485.683.628 1.11.144.423.216.887.216 1.39v.134c0 .5-.072.962-.216 1.39a3.297 3.297 0 0 1-.628 1.11 2.828 2.828 0 0 1-1.01.73c-.397.174-.852.261-1.364.261-.508 0-.963-.087-1.365-.26a2.815 2.815 0 0 1-1.015-.73 3.296 3.296 0 0 1-.629-1.111 4.334 4.334 0 0 1-.216-1.39Zm1.676-.134v.134c0 .3.03.582.089.844.06.262.15.493.273.692.123.199.281.355.476.47.199.11.436.165.71.165.272 0 .505-.055.7-.165.194-.115.353-.271.475-.47.127-.199.22-.43.28-.692a3.83 3.83 0 0 0 .088-.844v-.134c0-.296-.03-.573-.088-.831a2.16 2.16 0 0 0-.28-.692 1.335 1.335 0 0 0-1.187-.654 1.317 1.317 0 0 0-1.174.654c-.123.199-.214.43-.273.692-.06.258-.089.535-.089.831Zm7.63-1.904V44h-1.676v-6.868h1.574l.102 1.466Zm-.267 1.72h-.495c.004-.499.072-.952.203-1.358.132-.406.316-.755.553-1.047.24-.292.526-.517.857-.673.33-.157.698-.235 1.104-.235.33 0 .629.046.895.14.267.093.495.24.686.444.194.203.342.47.444.8.106.325.159.727.159 1.206V44h-1.689v-4.418c0-.313-.046-.56-.14-.743a.779.779 0 0 0-.393-.387 1.532 1.532 0 0 0-.628-.114 1.4 1.4 0 0 0-.68.159c-.19.101-.35.243-.482.425a2.094 2.094 0 0 0-.292.628 2.782 2.782 0 0 0-.102.768Zm15.292 2.362V44h-6.259v-1.13l3.002-3.243c.314-.356.561-.665.743-.927.182-.263.311-.5.387-.711a1.765 1.765 0 0 0-.031-1.359 1.14 1.14 0 0 0-.445-.501 1.31 1.31 0 0 0-.704-.178c-.31 0-.574.072-.794.216-.215.14-.38.334-.495.584-.11.25-.165.535-.165.857h-1.682c0-.546.127-1.043.38-1.492a2.832 2.832 0 0 1 1.093-1.085c.474-.271 1.037-.407 1.688-.407.635 0 1.172.106 1.612.318.44.207.775.504 1.003.889.229.385.343.844.343 1.377 0 .296-.048.588-.146.876a4.076 4.076 0 0 1-.412.857 7.46 7.46 0 0 1-.623.85c-.24.288-.51.582-.806.883l-1.802 2.006h4.113Zm7.376-7.922v.914L92.062 44h-1.771l3.63-7.922h-4.696v-1.32h6.468Zm7.477 7.922V44h-6.258v-1.13l3.002-3.243c.313-.356.561-.665.743-.927.182-.263.311-.5.387-.711.08-.216.121-.421.121-.616 0-.283-.051-.531-.153-.743a1.134 1.134 0 0 0-.444-.501 1.31 1.31 0 0 0-.705-.178c-.309 0-.573.072-.793.216-.216.14-.381.334-.495.584-.11.25-.165.535-.165.857h-1.682c0-.546.127-1.043.38-1.492a2.832 2.832 0 0 1 1.092-1.085c.474-.271 1.037-.407 1.689-.407.634 0 1.172.106 1.612.318.44.207.774.504 1.003.889.228.385.343.844.343 1.377 0 .296-.049.588-.146.876a4.093 4.093 0 0 1-.413.857c-.173.28-.381.563-.622.85-.241.288-.51.582-.806.883l-1.803 2.006h4.113Zm6.894-.451 1.841-7.471h.996l.064 1.574L110.997 44h-1.054l.121-1.771Zm-1.162-7.471 1.511 7.446V44h-1.149l-2.095-9.242h1.733Zm5.973 7.414 1.486-7.414h1.739L116.005 44h-1.149l.019-1.828Zm-1.498-7.414 1.841 7.496.108 1.746h-1.054l-1.961-7.674.076-1.568h.99Zm7.478 2.374V44h-1.682v-6.868h1.682Zm-1.796-1.797c0-.25.084-.457.253-.622.174-.165.407-.247.699-.247s.522.082.692.247c.173.165.26.373.26.622 0 .246-.087.451-.26.616-.17.165-.4.248-.692.248-.292 0-.525-.083-.699-.248a.826.826 0 0 1-.253-.616Zm5.173-1.085V44h-1.682v-9.75h1.682Zm3.377 0V44h-1.682v-9.75h1.682Zm3.377 2.882V44h-1.682v-6.868h1.682Zm-1.797-1.797c0-.25.085-.457.254-.622.174-.165.407-.247.699-.247s.522.082.691.247a.821.821 0 0 1 .261.622c0 .246-.087.451-.261.616-.169.165-.399.248-.691.248-.292 0-.525-.083-.699-.248a.826.826 0 0 1-.254-.616Zm7.18 7.205v-3.167a1.4 1.4 0 0 0-.121-.603.87.87 0 0 0-.368-.394c-.165-.093-.375-.14-.629-.14-.224 0-.421.038-.59.115a.872.872 0 0 0-.381.323.835.835 0 0 0-.133.47h-1.682c0-.283.068-.552.203-.806.135-.258.328-.487.578-.686.254-.203.556-.361.907-.476a3.894 3.894 0 0 1 1.194-.171c.52 0 .984.089 1.39.267.41.173.732.435.965.787.237.35.355.793.355 1.326v2.996c0 .343.021.637.064.883.046.24.114.45.203.628V44h-1.708a2.534 2.534 0 0 1-.184-.66 5.213 5.213 0 0 1-.063-.8Zm.235-2.723.012.996h-1.06a2.61 2.61 0 0 0-.692.083 1.28 1.28 0 0 0-.489.228.929.929 0 0 0-.285.356c-.064.135-.095.29-.095.463 0 .17.038.322.114.457.08.136.195.244.343.324.152.076.33.114.533.114.296 0 .554-.059.774-.177.22-.123.392-.271.514-.445.123-.173.189-.338.197-.495l.483.724c-.06.173-.148.357-.267.552a2.482 2.482 0 0 1-.457.546c-.186.17-.41.309-.673.419-.262.11-.567.165-.914.165-.444 0-.842-.089-1.193-.267a2.111 2.111 0 0 1-.832-.73 1.876 1.876 0 0 1-.305-1.053c0-.364.068-.686.204-.965.135-.28.336-.514.603-.705.266-.194.596-.34.99-.438a5.544 5.544 0 0 1 1.365-.152h1.13Zm4.633-1.276V44h-1.675v-6.868h1.58l.095 1.409Zm-.247 1.777h-.514c0-.478.057-.918.171-1.32.118-.402.292-.751.52-1.047.229-.3.51-.534.845-.699.338-.165.73-.247 1.174-.247.309 0 .592.046.851.14.258.088.48.23.666.425.191.19.337.44.438.749.102.304.152.67.152 1.098V44h-1.675v-4.412c0-.321-.047-.573-.14-.755a.755.755 0 0 0-.387-.38 1.48 1.48 0 0 0-.61-.115 1.38 1.38 0 0 0-.679.159c-.186.101-.34.243-.463.425a2.061 2.061 0 0 0-.267.628 3.394 3.394 0 0 0-.082.768Zm4.177-.31-.692.126c.004-.431.063-.836.177-1.212a3.04 3.04 0 0 1 .502-.997c.224-.287.501-.512.831-.673.335-.165.72-.247 1.156-.247.338 0 .643.048.914.146.275.093.51.243.704.45.195.204.343.468.445.794.105.326.158.724.158 1.193V44h-1.688v-4.418c0-.334-.047-.59-.14-.768a.73.73 0 0 0-.387-.368 1.517 1.517 0 0 0-.597-.108 1.256 1.256 0 0 0-1.041.489c-.114.152-.201.33-.26.533a2.422 2.422 0 0 0-.082.647Zm13.901 1.593c0-.178-.028-.337-.083-.477a.879.879 0 0 0-.285-.387 2.29 2.29 0 0 0-.578-.343 8.042 8.042 0 0 0-.952-.355 10.49 10.49 0 0 1-1.206-.457 4.73 4.73 0 0 1-.984-.59 2.526 2.526 0 0 1-.654-.775 2.175 2.175 0 0 1-.235-1.028c0-.38.081-.728.242-1.041.165-.313.397-.582.698-.806.3-.229.654-.404 1.06-.527.41-.123.863-.184 1.358-.184.686 0 1.278.125 1.778.374.503.25.892.589 1.168 1.016.275.427.412.908.412 1.44h-1.739c0-.287-.061-.54-.184-.76a1.257 1.257 0 0 0-.546-.521c-.241-.127-.546-.19-.914-.19-.356 0-.652.052-.889.158-.233.106-.408.25-.527.432a1.124 1.124 0 0 0-.171.609c0 .17.04.322.121.457.08.131.201.256.361.374.161.115.36.223.597.324.241.098.521.195.838.292.508.153.952.322 1.333.508.385.186.705.398.958.635.259.237.451.503.578.8.131.296.197.632.197 1.009 0 .398-.078.753-.235 1.066-.157.313-.381.58-.673.8a3.12 3.12 0 0 1-1.054.502 5.037 5.037 0 0 1-1.364.171c-.449 0-.893-.06-1.333-.178a4.047 4.047 0 0 1-1.187-.546 2.785 2.785 0 0 1-.851-.926c-.212-.377-.317-.817-.317-1.32h1.752c0 .291.046.54.139.748.098.203.233.37.407.502.177.127.385.22.622.279.237.06.493.089.768.089.355 0 .647-.049.876-.146.232-.102.406-.241.52-.419a1.07 1.07 0 0 0 .178-.61Zm6.221-4.47v1.207h-3.936v-1.206h3.936Zm-2.882-1.688h1.682v6.577c0 .203.027.36.082.47.055.11.138.183.248.221.11.038.241.058.393.058.111 0 .212-.007.305-.02.093-.012.172-.025.235-.038l.006 1.257a3.125 3.125 0 0 1-.476.114c-.173.03-.37.045-.59.045-.377 0-.707-.064-.99-.19a1.41 1.41 0 0 1-.66-.629c-.157-.292-.235-.677-.235-1.155v-6.71Z"/><path fill="#5334AE" d="M211.37 19v-7h2.88c.62 0 1.15.1 1.59.3.446.2.79.487 1.03.86s.36.817.36 1.33c0 .513-.12.957-.36 1.33-.24.373-.584.66-1.03.86-.44.2-.97.3-1.59.3h-2.16l.58-.61V19h-1.3Zm1.3-2.49-.58-.63h2.1c.573 0 1.003-.12 1.29-.36.293-.247.44-.59.44-1.03 0-.447-.147-.79-.44-1.03-.287-.24-.717-.36-1.29-.36h-2.1l.58-.64v4.05Zm8.979 2.49v-1.08l-.07-.23V15.8c0-.367-.11-.65-.33-.85-.22-.207-.553-.31-1-.31-.3 0-.597.047-.89.14-.287.093-.53.223-.73.39l-.49-.91c.287-.22.627-.383 1.02-.49.4-.113.813-.17 1.24-.17.773 0 1.37.187 1.79.56.427.367.64.937.64 1.71V19h-1.18Zm-1.68.07c-.4 0-.75-.067-1.05-.2a1.71 1.71 0 0 1-.7-.57 1.492 1.492 0 0 1-.24-.83c0-.3.07-.57.21-.81.147-.24.383-.43.71-.57.327-.14.76-.21 1.3-.21h1.55v.83h-1.46c-.427 0-.713.07-.86.21a.646.646 0 0 0-.22.5c0 .227.09.407.27.54.18.133.43.2.75.2.307 0 .58-.07.82-.21.247-.14.423-.347.53-.62l.21.75c-.12.313-.337.557-.65.73-.307.173-.697.26-1.17.26Zm6.114 0c-.446 0-.876-.057-1.29-.17-.406-.12-.73-.263-.97-.43l.48-.95c.24.153.527.28.86.38.334.1.667.15 1 .15.394 0 .677-.053.85-.16.18-.107.27-.25.27-.43a.362.362 0 0 0-.18-.33c-.12-.08-.276-.14-.47-.18-.193-.04-.41-.077-.65-.11a9.434 9.434 0 0 1-.71-.13 2.737 2.737 0 0 1-.64-.25 1.383 1.383 0 0 1-.47-.45c-.12-.187-.18-.433-.18-.74 0-.34.097-.633.29-.88a1.81 1.81 0 0 1 .81-.58c.354-.14.77-.21 1.25-.21.36 0 .724.04 1.09.12.367.08.67.193.91.34l-.48.95a2.424 2.424 0 0 0-.77-.31 3.281 3.281 0 0 0-.76-.09c-.38 0-.663.057-.85.17-.18.113-.27.257-.27.43 0 .16.06.28.18.36.12.08.277.143.47.19.194.047.407.087.64.12.24.027.477.07.71.13.234.06.447.143.64.25.2.1.36.243.48.43s.18.43.18.73c0 .333-.1.623-.3.87-.193.247-.47.44-.83.58-.36.133-.79.2-1.29.2Zm5.147 0c-.447 0-.877-.057-1.29-.17-.407-.12-.73-.263-.97-.43l.48-.95c.24.153.526.28.86.38.333.1.666.15 1 .15.393 0 .676-.053.85-.16.18-.107.27-.25.27-.43a.362.362 0 0 0-.18-.33c-.12-.08-.277-.14-.47-.18a10.12 10.12 0 0 0-.65-.11 9.343 9.343 0 0 1-.71-.13 2.703 2.703 0 0 1-.64-.25 1.374 1.374 0 0 1-.47-.45c-.12-.187-.18-.433-.18-.74 0-.34.096-.633.29-.88a1.8 1.8 0 0 1 .81-.58c.353-.14.77-.21 1.25-.21.36 0 .723.04 1.09.12.366.08.67.193.91.34l-.48.95a2.433 2.433 0 0 0-.77-.31 3.294 3.294 0 0 0-.76-.09c-.38 0-.664.057-.85.17-.18.113-.27.257-.27.43 0 .16.06.28.18.36.12.08.276.143.47.19.193.047.406.087.64.12.24.027.476.07.71.13.233.06.446.143.64.25.2.1.36.243.48.43s.18.43.18.73c0 .333-.1.623-.3.87-.194.247-.47.44-.83.58-.36.133-.79.2-1.29.2Zm4.75-2.39c0-.247.04-.463.12-.65.08-.187.183-.353.31-.5.126-.147.26-.283.4-.41.146-.127.283-.25.41-.37.126-.12.23-.247.31-.38a.857.857 0 0 0 .12-.45.818.818 0 0 0-.34-.68c-.227-.173-.53-.26-.91-.26-.367 0-.687.067-.96.2-.267.133-.49.323-.67.57l-.97-.63c.28-.38.646-.677 1.1-.89.453-.22.99-.33 1.61-.33.486 0 .913.073 1.28.22.366.14.653.347.86.62.206.267.31.593.31.98 0 .267-.044.5-.13.7-.08.2-.187.377-.32.53a5.006 5.006 0 0 1-.41.42c-.147.127-.287.253-.42.38-.127.127-.23.263-.31.41-.08.147-.12.32-.12.52h-1.27Zm.64 2.39a.766.766 0 0 1-.8-.78c0-.213.073-.393.22-.54a.785.785 0 0 1 .58-.23c.233 0 .423.077.57.23.146.147.22.327.22.54a.77.77 0 0 1-.79.78Z"/></svg>