<svg xmlns="http://www.w3.org/2000/svg" width="175" height="103" fill="none"><path fill="#536B76" d="M87.715 23.89h1.162l1.943 5.352 1.939-5.351h1.167L91.284 31h-.932l-2.637-7.11Zm-.586 0h1.138l.205 4.918V31h-1.343v-7.11Zm6.24 0h1.143V31h-1.343v-2.192l.2-4.917Zm5.322 5.987V27.44c0-.179-.03-.333-.092-.463a.67.67 0 0 0-.284-.303.975.975 0 0 0-.483-.108c-.172 0-.324.03-.454.088a.67.67 0 0 0-.293.25.643.643 0 0 0-.103.36H95.69a1.3 1.3 0 0 1 .156-.62 1.66 1.66 0 0 1 .444-.527c.195-.156.428-.278.698-.366a2.99 2.99 0 0 1 .918-.132c.4 0 .757.069 1.07.205.315.134.563.335.742.606.182.27.273.61.273 1.02v2.305c0 .264.017.49.049.679.036.185.088.346.156.483V31h-1.313a1.95 1.95 0 0 1-.142-.508 3.987 3.987 0 0 1-.049-.615Zm.181-2.095.01.767h-.816c-.201 0-.379.021-.532.063a.985.985 0 0 0-.376.176.712.712 0 0 0-.22.273.83.83 0 0 0 .015.709c.062.104.15.187.264.249a.907.907 0 0 0 .41.087c.228 0 .426-.045.596-.136.169-.095.3-.209.395-.342a.738.738 0 0 0 .151-.38l.372.556a2.174 2.174 0 0 1-.206.425c-.09.15-.208.29-.351.42a1.79 1.79 0 0 1-.518.322 1.808 1.808 0 0 1-.703.127c-.341 0-.647-.069-.918-.205a1.627 1.627 0 0 1-.64-.562 1.442 1.442 0 0 1-.234-.81c0-.28.052-.528.157-.743.104-.214.258-.395.463-.542.206-.15.46-.262.762-.337a4.26 4.26 0 0 1 1.05-.117h.87Zm3.648-4.282V31h-1.294v-7.5h1.294Zm3.603 7.598c-.4 0-.76-.065-1.079-.196a2.362 2.362 0 0 1-.815-.542 2.475 2.475 0 0 1-.513-.815 2.846 2.846 0 0 1-.176-1.006v-.195c0-.407.059-.777.176-1.109.117-.335.283-.623.498-.864.215-.24.472-.426.771-.556.3-.13.63-.196.992-.196.374 0 .704.064.991.19.286.124.525.3.718.528.192.228.336.501.434.82.098.316.147.666.147 1.05v.542h-4.141v-.889h2.871v-.097a1.557 1.557 0 0 0-.117-.562.898.898 0 0 0-.332-.41c-.15-.104-.344-.156-.581-.156a.97.97 0 0 0-.503.127c-.14.081-.257.198-.352.351-.091.15-.159.33-.205.537-.045.209-.068.44-.068.694v.195c0 .221.029.426.088.615.062.19.151.354.268.494.121.136.264.244.43.322.169.075.361.112.576.112.27 0 .514-.052.733-.156.221-.108.413-.265.576-.474l.649.674a2.295 2.295 0 0 1-1.123.835 2.791 2.791 0 0 1-.913.137ZM128.304 43.89h1.342v4.722c0 .544-.117 1.001-.351 1.372a2.226 2.226 0 0 1-.957.835 3.263 3.263 0 0 1-1.377.279 3.32 3.32 0 0 1-1.392-.279 2.192 2.192 0 0 1-.957-.835c-.231-.37-.346-.828-.346-1.372v-4.721h1.342v4.721c0 .332.056.604.166.816.111.208.267.363.469.464.202.1.441.151.718.151.28 0 .519-.05.718-.151.202-.101.356-.256.464-.464.107-.212.161-.484.161-.816v-4.721Zm3.784 2.955V51h-1.289v-5.283h1.211l.078 1.128Zm-.205 1.323h-.381c.003-.384.055-.733.156-1.045.101-.313.243-.581.425-.806.186-.224.405-.397.659-.517s.537-.18.85-.18c.254 0 .483.035.688.107.205.071.381.185.528.341.149.157.263.362.341.616.082.25.122.56.122.927V51h-1.298v-3.398c0-.241-.036-.432-.108-.572a.596.596 0 0 0-.303-.298 1.175 1.175 0 0 0-.483-.087c-.198 0-.373.04-.522.122a1.067 1.067 0 0 0-.371.327 1.6 1.6 0 0 0-.225.483c-.052.182-.078.38-.078.591Zm5.815-4.673V51h-1.289v-7.505h1.289Zm3.311 2.222-2.3 2.583-1.245 1.265-.41-1.002.962-1.21 1.435-1.636h1.558ZM139.69 51l-1.635-2.46.859-.836L141.185 51h-1.495Zm3.267-4.155V51h-1.289v-5.283h1.211l.078 1.128Zm-.205 1.323h-.381c.003-.384.055-.733.156-1.045.101-.313.243-.581.425-.806.186-.224.405-.397.659-.517s.537-.18.85-.18c.254 0 .483.035.688.107.205.071.381.185.528.341.149.157.263.362.342.616.081.25.122.56.122.927V51h-1.299v-3.398c0-.241-.036-.432-.108-.572a.598.598 0 0 0-.302-.298 1.183 1.183 0 0 0-.484-.087c-.198 0-.372.04-.522.122-.147.078-.27.187-.371.327a1.6 1.6 0 0 0-.225.483c-.052.182-.078.38-.078.591Zm4.297.244v-.102c0-.388.055-.744.166-1.07.111-.329.272-.613.483-.854.212-.241.471-.428.777-.562a2.536 2.536 0 0 1 1.045-.205c.397 0 .748.069 1.054.205.309.134.57.32.781.562.212.24.373.525.484.854.111.326.166.682.166 1.07v.102c0 .384-.055.74-.166 1.07-.111.325-.272.61-.484.854a2.17 2.17 0 0 1-.776.562c-.306.133-.656.2-1.05.2-.39 0-.74-.067-1.05-.2a2.171 2.171 0 0 1-.781-.562 2.549 2.549 0 0 1-.483-.855 3.323 3.323 0 0 1-.166-1.069Zm1.289-.102v.102c0 .231.023.448.068.65.046.201.116.379.21.532.095.153.217.273.366.361.153.085.336.127.547.127.209 0 .388-.042.537-.127.15-.088.272-.208.367-.361.097-.153.169-.33.214-.532.046-.202.069-.419.069-.65v-.102a2.83 2.83 0 0 0-.069-.64 1.661 1.661 0 0 0-.214-.532 1.03 1.03 0 0 0-.913-.503 1.015 1.015 0 0 0-.904.503c-.094.153-.164.33-.21.532a2.89 2.89 0 0 0-.068.64Zm6.074 1.42 1.157-4.013h.821l-.244 1.386L154.979 51h-.708l.141-1.27Zm-.64-4.013.87 4.023.078 1.26h-.816l-1.386-5.283h1.254Zm3.692 3.965.849-3.965h1.25L158.187 51h-.816l.093-1.318Zm-.947-3.965 1.147 3.974.151 1.309h-.708l-1.176-3.897-.24-1.386h.826Zm5.073 1.128V51h-1.289v-5.283h1.211l.078 1.128Zm-.205 1.323h-.381c.003-.384.055-.733.156-1.045.101-.313.243-.581.425-.806.186-.224.405-.397.659-.517s.537-.18.85-.18c.254 0 .483.035.688.107.205.071.381.185.528.341.149.157.263.362.341.616.082.25.122.56.122.927V51h-1.298v-3.398c0-.241-.036-.432-.108-.572a.596.596 0 0 0-.303-.298 1.175 1.175 0 0 0-.483-.087c-.199 0-.373.04-.522.122a1.067 1.067 0 0 0-.371.327 1.6 1.6 0 0 0-.225.483c-.052.182-.078.38-.078.591ZM73.94 96v-7H77c.76 0 1.427.147 2 .44a3.3 3.3 0 0 1 1.34 1.22c.32.52.48 1.133.48 1.84 0 .7-.16 1.313-.48 1.84A3.3 3.3 0 0 1 79 95.56c-.573.293-1.24.44-2 .44h-3.06Zm1.3-1.1h1.7c.527 0 .98-.1 1.36-.3.387-.2.683-.48.89-.84.213-.36.32-.78.32-1.26 0-.487-.107-.907-.32-1.26a2.126 2.126 0 0 0-.89-.84c-.38-.2-.833-.3-1.36-.3h-1.7v4.8ZM85.372 96v-1.08l-.07-.23V92.8c0-.367-.11-.65-.33-.85-.22-.207-.554-.31-1-.31-.3 0-.597.047-.89.14a2.18 2.18 0 0 0-.73.39l-.49-.91c.286-.22.626-.383 1.02-.49.4-.113.813-.17 1.24-.17.773 0 1.37.187 1.79.56.426.367.64.937.64 1.71V96h-1.18Zm-1.68.07c-.4 0-.75-.067-1.05-.2-.3-.14-.534-.33-.7-.57a1.492 1.492 0 0 1-.24-.83c0-.3.07-.57.21-.81.146-.24.383-.43.71-.57.326-.14.76-.21 1.3-.21h1.55v.83h-1.46c-.427 0-.714.07-.86.21a.648.648 0 0 0-.22.5c0 .227.09.407.27.54.18.133.43.2.75.2.306 0 .58-.07.82-.21.246-.14.423-.347.53-.62l.21.75c-.12.313-.337.557-.65.73-.307.173-.697.26-1.17.26Zm6.474 0c-.587 0-1.04-.15-1.36-.45-.32-.307-.48-.757-.48-1.35v-4.79h1.25v4.76c0 .253.063.45.19.59.133.14.317.21.55.21.28 0 .513-.073.7-.22l.35.89c-.147.12-.327.21-.54.27-.213.06-.433.09-.66.09Zm-2.72-4.37v-1h3.56v1h-3.56Zm8.238 4.3v-1.08l-.07-.23V92.8c0-.367-.11-.65-.33-.85-.22-.207-.553-.31-1-.31-.3 0-.596.047-.89.14a2.18 2.18 0 0 0-.73.39l-.49-.91c.287-.22.627-.383 1.02-.49.4-.113.814-.17 1.24-.17.774 0 1.37.187 1.79.56.427.367.64.937.64 1.71V96h-1.18Zm-1.68.07c-.4 0-.75-.067-1.05-.2-.3-.14-.533-.33-.7-.57a1.492 1.492 0 0 1-.24-.83c0-.3.07-.57.21-.81.147-.24.384-.43.71-.57.327-.14.76-.21 1.3-.21h1.55v.83h-1.46c-.426 0-.713.07-.86.21a.648.648 0 0 0-.22.5c0 .227.09.407.27.54.18.133.43.2.75.2.307 0 .58-.07.82-.21.247-.14.424-.347.53-.62l.21.75c-.12.313-.336.557-.65.73-.306.173-.696.26-1.17.26Zm9.518.03c-.547 0-1.07-.077-1.57-.23-.5-.16-.897-.363-1.19-.61l.45-1.01c.28.22.627.403 1.04.55.413.147.837.22 1.27.22.367 0 .663-.04.89-.12.227-.08.393-.187.5-.32a.754.754 0 0 0 .16-.47.629.629 0 0 0-.23-.51 1.588 1.588 0 0 0-.6-.31c-.24-.08-.51-.153-.81-.22-.293-.067-.59-.143-.89-.23a4.256 4.256 0 0 1-.81-.35 1.813 1.813 0 0 1-.59-.58c-.153-.24-.23-.547-.23-.92 0-.38.1-.727.3-1.04.207-.32.517-.573.93-.76.42-.193.95-.29 1.59-.29.42 0 .837.053 1.25.16.413.107.773.26 1.08.46l-.41 1.01a3.718 3.718 0 0 0-.97-.41 3.556 3.556 0 0 0-.96-.14c-.36 0-.653.043-.88.13-.22.087-.383.2-.49.34-.1.14-.15.3-.15.48 0 .213.073.387.22.52.153.127.35.227.59.3.247.073.52.147.82.22.3.067.597.143.89.23.3.087.57.2.81.34.247.14.443.33.59.57.153.24.23.543.23.91 0 .373-.103.72-.31 1.04-.2.313-.51.567-.93.76-.42.187-.95.28-1.59.28Zm6.509-.03c-.593 0-1.113-.117-1.56-.35a2.654 2.654 0 0 1-1.03-.98 2.756 2.756 0 0 1-.36-1.41c0-.533.117-1.003.35-1.41.24-.413.567-.737.98-.97.42-.233.897-.35 1.43-.35.52 0 .984.113 1.39.34.407.227.727.547.96.96.234.413.35.9.35 1.46 0 .053-.003.113-.01.18 0 .067-.003.13-.01.19h-4.45v-.83h3.79l-.49.26a1.525 1.525 0 0 0-.19-.81 1.446 1.446 0 0 0-.55-.55c-.226-.133-.49-.2-.79-.2-.306 0-.576.067-.81.2-.226.133-.406.32-.54.56-.126.233-.19.51-.19.83v.2c0 .32.074.603.22.85.147.247.354.437.62.57.267.133.574.2.92.2.3 0 .57-.047.81-.14.24-.093.454-.24.64-.44l.67.77c-.24.28-.543.497-.91.65-.36.147-.773.22-1.24.22Zm5.721 0c-.587 0-1.04-.15-1.36-.45-.32-.307-.48-.757-.48-1.35v-4.79h1.25v4.76c0 .253.063.45.19.59.133.14.317.21.55.21.28 0 .513-.073.7-.22l.35.89c-.147.12-.327.21-.54.27-.213.06-.433.09-.66.09Zm-2.72-4.37v-1h3.56v1h-3.56ZM36.115 10.89V18h-1.343v-7.11h1.343Zm2.866 3.072v1.06h-3.217v-1.06h3.217Zm.376-3.071v1.06h-3.593v-1.06h3.593Zm3.081 7.207c-.4 0-.76-.065-1.079-.196a2.37 2.37 0 0 1-.815-.542 2.494 2.494 0 0 1-.513-.815 2.843 2.843 0 0 1-.175-1.006v-.195c0-.407.058-.777.175-1.109.117-.335.284-.623.498-.864.215-.24.472-.426.772-.556.3-.13.63-.196.991-.196.374 0 .705.064.991.19.287.124.526.3.718.528a2.3 2.3 0 0 1 .434.82c.098.316.147.666.147 1.05v.542h-4.14v-.889h2.87v-.097a1.555 1.555 0 0 0-.117-.562.897.897 0 0 0-.332-.41c-.15-.104-.343-.156-.58-.156a.97.97 0 0 0-.504.127 1.01 1.01 0 0 0-.351.351c-.091.15-.16.33-.205.537-.046.209-.069.44-.069.694v.195c0 .221.03.427.088.615.062.19.152.354.269.494.12.136.263.244.43.322.169.075.36.112.576.112.27 0 .514-.052.732-.156a1.63 1.63 0 0 0 .576-.474l.65.674c-.111.163-.26.319-.45.469-.185.15-.41.271-.673.366a2.79 2.79 0 0 1-.913.137ZM46.73 13.8V18h-1.289v-5.283h1.216l.074 1.084Zm-.19 1.367h-.395c0-.368.043-.706.131-1.016.091-.309.225-.577.4-.805.176-.231.393-.41.65-.537.26-.127.562-.19.904-.19.237 0 .455.035.654.107.198.068.37.177.513.327.146.146.258.338.336.576.079.234.118.516.118.845V18h-1.29v-3.394c0-.247-.035-.44-.107-.58a.58.58 0 0 0-.298-.294 1.136 1.136 0 0 0-.468-.087c-.202 0-.377.04-.523.122a1.007 1.007 0 0 0-.356.327 1.58 1.58 0 0 0-.206.483c-.042.182-.063.38-.063.591Zm3.213-.24-.532.098a3.31 3.31 0 0 1 .136-.932c.088-.293.217-.549.386-.767a1.8 1.8 0 0 1 .64-.517c.257-.127.553-.19.889-.19.26 0 .494.037.703.111.211.072.392.188.542.347.15.156.263.36.341.61.082.251.123.557.123.918V18h-1.3v-3.398c0-.258-.035-.454-.107-.591a.56.56 0 0 0-.298-.284 1.168 1.168 0 0 0-.459-.082.96.96 0 0 0-.8.376 1.268 1.268 0 0 0-.2.41 1.863 1.863 0 0 0-.064.498Zm7.295 1.949V14.44c0-.179-.031-.333-.093-.463a.671.671 0 0 0-.283-.303.975.975 0 0 0-.483-.108c-.173 0-.324.03-.455.088a.67.67 0 0 0-.293.25.643.643 0 0 0-.102.36h-1.294c0-.217.052-.424.156-.62.104-.198.252-.374.444-.527.196-.156.429-.278.699-.366a2.99 2.99 0 0 1 .918-.132c.4 0 .757.069 1.07.205.315.134.562.335.741.606.182.27.274.61.274 1.02v2.305c0 .264.016.49.048.679.036.185.088.346.157.483V18h-1.314a1.942 1.942 0 0 1-.141-.508 3.975 3.975 0 0 1-.05-.615Zm.18-2.095.01.767h-.815c-.202 0-.38.021-.532.063a.985.985 0 0 0-.376.176.714.714 0 0 0-.22.273.831.831 0 0 0-.073.357c0 .13.029.247.088.352.061.104.15.187.263.249a.907.907 0 0 0 .41.087c.228 0 .427-.045.596-.136.17-.095.301-.209.396-.342a.738.738 0 0 0 .151-.38l.371.556a2.186 2.186 0 0 1-.205.425c-.091.15-.208.29-.352.42a1.79 1.79 0 0 1-.517.322 1.808 1.808 0 0 1-.703.127c-.342 0-.648-.069-.918-.205a1.628 1.628 0 0 1-.64-.562 1.443 1.443 0 0 1-.234-.81c0-.28.052-.528.156-.743.104-.215.259-.395.464-.542.205-.15.459-.262.762-.337a4.26 4.26 0 0 1 1.05-.117h.868Zm3.648-4.282V18h-1.294v-7.5h1.294Zm3.604 7.598c-.4 0-.76-.065-1.08-.196a2.37 2.37 0 0 1-.815-.542 2.49 2.49 0 0 1-.513-.815 2.841 2.841 0 0 1-.175-1.006v-.195c0-.407.058-.777.175-1.109.117-.335.283-.623.498-.864.215-.24.472-.426.772-.556.3-.13.63-.196.991-.196.374 0 .705.064.991.19.287.124.526.3.718.528.192.228.337.501.435.82.097.316.146.666.146 1.05v.542h-4.14v-.889h2.87v-.097a1.555 1.555 0 0 0-.117-.562.897.897 0 0 0-.332-.41c-.15-.104-.343-.156-.58-.156a.97.97 0 0 0-.504.127c-.14.081-.257.198-.351.351a1.74 1.74 0 0 0-.205.537c-.046.209-.069.44-.069.694v.195c0 .221.03.427.088.615.062.19.152.354.269.494.12.136.263.244.43.322.169.075.36.112.576.112.27 0 .514-.052.732-.156a1.63 1.63 0 0 0 .576-.474l.65.674c-.111.163-.26.319-.45.469-.185.15-.41.271-.673.366a2.79 2.79 0 0 1-.913.137Z"/><path stroke="#536B76" stroke-miterlimit="10" stroke-width="1.41" d="M175 81.651H19.517V17"/><path fill="#0098DA" d="M129.367 79.8h26.591V59.972h-26.591v19.826Z"/><path fill="#6651BC" d="M83.718 79.8h26.591V38.451H83.718v41.347Z"/><path fill="#3E4095" d="M38.083 79.8h26.592V25.97H38.083V79.8Z"/><path fill="#536B76" d="M.861 41.555v-.677c0-.486.106-.928.317-1.327.21-.398.518-.718.923-.958.41-.24.908-.36 1.494-.36.597 0 1.098.12 1.503.36.41.24.717.56.923.958.21.399.316.841.316 1.327v.677c0 .475-.106.911-.316 1.31-.206.398-.51.717-.915.958-.404.24-.902.36-1.494.36-.591 0-1.092-.12-1.503-.36-.41-.24-.72-.56-.931-.958a2.755 2.755 0 0 1-.317-1.31Zm1.574-.677v.677c0 .223.04.434.123.633.088.193.22.351.395.474.176.123.396.185.66.185.263 0 .477-.062.64-.184.17-.124.297-.282.379-.475.088-.2.132-.41.132-.633v-.677c0-.228-.044-.442-.132-.641a1.08 1.08 0 0 0-.387-.484c-.17-.123-.387-.184-.65-.184-.258 0-.475.061-.65.184-.17.123-.3.285-.387.484-.082.199-.123.413-.123.641Zm4.57 7.875v-.676c0-.48.105-.92.316-1.319a2.46 2.46 0 0 1 .94-.958c.41-.24.906-.36 1.486-.36.604 0 1.107.12 1.512.36.404.24.709.56.914.958.21.399.316.838.316 1.319v.676c0 .48-.105.92-.316 1.319-.205.398-.51.717-.914.958-.399.24-.894.36-1.486.36-.591 0-1.095-.12-1.511-.36-.41-.24-.724-.56-.94-.958a2.774 2.774 0 0 1-.317-1.319Zm1.582-.676v.676c0 .229.047.443.14.642.094.193.229.351.405.474a1.1 1.1 0 0 0 .633.185c.293 0 .524-.061.694-.184a.994.994 0 0 0 .36-.475c.07-.2.106-.413.106-.642v-.676c0-.229-.044-.44-.132-.633-.088-.2-.22-.36-.395-.484-.17-.123-.387-.184-.65-.184-.259 0-.476.061-.651.184-.17.123-.3.285-.387.484a1.604 1.604 0 0 0-.123.633Zm1.74-7.831L4.078 50.246l-1.151-.641 6.249-10.002 1.151.642Z"/></svg>