<svg width="2200" height="500" viewBox="0 0 2200 500" fill="none" xmlns="http://www.w3.org/2000/svg">
<rect width="2200" height="500" fill="white"/>
<g clip-path="url(#clip0_697_4)">
<path d="M574.794 188.579H610.678V288.346C610.678 333.041 589.148 349.004 554.859 349.004C546.885 349.004 535.721 347.407 528.545 345.013L532.532 316.28C537.316 317.877 543.696 319.473 550.872 319.473C566.023 319.473 574.794 313.088 574.794 288.346V188.579Z" fill="#3E4095"/>
<path d="M734.274 287.549C734.274 329.052 704.77 348.207 673.672 348.207C640.18 348.207 614.663 325.859 614.663 289.145C614.663 252.431 638.586 228.487 675.266 228.487C710.352 228.487 734.274 253.229 734.274 287.549ZM651.344 288.347C651.344 308.3 659.318 322.667 674.469 322.667C688.025 322.667 696.796 309.099 696.796 288.347C696.796 271.586 690.417 254.028 674.469 254.028C657.723 254.028 651.344 271.586 651.344 288.347Z" fill="#3E4095"/>
<path d="M738.263 179.8H774.146V245.247H774.943C778.931 240.458 783.715 236.468 789.297 233.275C794.081 230.083 801.258 228.486 807.637 228.486C829.965 228.486 847.507 244.449 847.507 278.769V345.812H811.624V282.759C811.624 267.595 806.84 257.219 793.284 257.219C783.715 257.219 778.133 263.604 775.741 269.989C774.943 272.384 774.943 275.576 774.943 277.971V345.812H738.263V179.8Z" fill="#3E4095"/>
<path d="M857.874 267.596C857.874 253.229 857.076 241.257 857.076 230.882H888.175L889.77 246.844V246.844C894.554 239.661 905.718 228.487 924.856 228.487C947.98 228.487 965.523 243.652 965.523 277.173V345.015H929.64V281.962C929.64 267.596 924.856 257.22 911.3 257.22C901.731 257.22 895.352 263.605 892.959 270.788C892.162 273.183 891.365 276.375 891.365 279.568V345.813H857.874V267.596Z" fill="#3E4095"/>
<path d="M1009.38 309.098C1018.95 313.887 1033.3 318.676 1048.45 318.676C1064.4 318.676 1073.17 312.291 1073.17 301.915C1073.17 292.338 1066 286.751 1046.86 279.567C1020.54 270.788 1003.8 255.624 1003.8 233.276C1003.8 206.139 1026.13 186.186 1063.6 186.186C1081.15 186.186 1094.7 190.177 1103.47 194.167L1095.5 222.9C1089.12 219.708 1077.96 215.717 1062.81 215.717C1047.66 215.717 1039.68 222.9 1039.68 230.881C1039.68 241.257 1048.45 245.248 1069.19 253.229C1097.1 263.605 1109.85 277.971 1109.85 300.319C1109.85 326.657 1089.92 349.005 1046.06 349.005C1027.72 349.005 1010.18 344.216 1001.41 339.427L1009.38 309.098Z" fill="#3E4095"/>
<path d="M1114.64 268.5C1114.64 254.134 1114.64 241.257 1114.64 230.882H1145.74L1147.33 246.844H1148.13C1152.91 239.661 1164.08 228.487 1183.21 228.487C1206.34 228.487 1223.88 243.652 1223.88 277.173V345.015H1188V281.962C1188 267.596 1183.21 257.22 1169.66 257.22C1160.09 257.22 1153.71 263.605 1151.32 270.788C1150.52 273.183 1149.72 276.375 1149.72 279.568V345.813H1113.84L1114.64 268.5Z" fill="#3E4095"/>
<path d="M1347.48 287.549C1347.48 329.052 1317.98 348.207 1286.88 348.207C1253.39 348.207 1227.87 325.859 1227.87 289.145C1227.87 252.431 1251.79 228.487 1288.47 228.487C1324.36 228.487 1347.48 253.229 1347.48 287.549ZM1264.55 288.347C1264.55 308.3 1272.52 322.667 1287.68 322.667C1301.23 322.667 1310 309.099 1310 288.347C1310 271.586 1303.62 254.028 1287.68 254.028C1270.93 254.028 1264.55 271.586 1264.55 288.347Z" fill="#3E4095"/>
<path d="M1374.59 231.678L1383.37 278.768C1385.76 290.74 1388.15 303.51 1389.74 316.28H1390.54C1392.93 303.51 1396.12 289.942 1399.31 278.768L1411.27 231.678H1439.18L1450.35 277.172C1453.54 289.942 1456.73 302.712 1459.12 316.28H1459.92C1461.51 303.51 1463.9 289.942 1466.3 277.172L1475.86 231.678H1510.95L1475.86 345.811H1442.37L1432.01 305.905C1428.82 294.731 1427.22 284.355 1424.83 269.989H1424.03C1421.64 284.355 1419.25 294.731 1416.86 305.905L1405.69 345.811H1372.2L1338.71 231.678H1374.59V231.678Z" fill="#3E4095"/>
<path d="M1577.13 190.974H1597.07V324.262H1668.83V341.023H1577.13V190.974Z" fill="#0098DA"/>
<path d="M1695.95 293.135L1678.4 341.023H1656.87L1713.49 190.974H1738.21L1795.62 341.023H1773.29L1754.95 293.135H1695.95ZM1751.76 277.971L1735.02 233.275C1731.83 223.698 1728.64 215.716 1726.25 207.735H1725.45C1723.06 215.716 1720.67 223.698 1717.48 232.477L1700.73 277.971H1751.76Z" fill="#0098DA"/>
<path d="M1796.42 193.369C1805.19 191.773 1820.34 190.177 1835.49 190.177C1857.02 190.177 1869.78 193.369 1879.35 201.351C1887.32 207.736 1892.91 216.515 1892.91 228.487C1892.91 242.853 1882.54 255.623 1866.59 261.21V262.008C1879.35 265.201 1898.49 276.375 1898.49 299.521C1898.49 312.291 1892.91 322.666 1884.93 329.85C1873.77 339.427 1856.22 344.216 1829.11 344.216C1814.76 344.216 1803.59 343.418 1796.42 342.62V193.369ZM1817.15 254.825H1837.88C1860.21 254.825 1872.17 244.45 1872.17 230.083C1872.17 211.726 1857.02 205.341 1837.09 205.341C1826.72 205.341 1820.34 206.139 1817.15 206.937V254.825ZM1817.15 325.859C1821.94 326.657 1827.52 326.657 1835.49 326.657C1856.22 326.657 1876.96 320.272 1876.96 297.126C1876.96 276.375 1858.62 268.394 1835.49 268.394H1816.35V325.859H1817.15Z" fill="#0098DA"/>
<path d="M1902.47 316.281C1912.04 322.666 1926.4 327.455 1941.55 327.455C1963.08 327.455 1975.04 317.079 1975.04 301.914C1975.04 287.548 1967.06 279.567 1943.94 272.384C1915.23 263.604 1900.08 250.834 1900.08 229.284C1900.08 205.341 1920.81 187.782 1951.91 187.782C1969.46 187.782 1981.42 191.772 1989.39 195.763L1983.81 211.726C1979.02 208.533 1967.06 203.744 1951.91 203.744C1929.59 203.744 1920.81 216.514 1920.81 226.092C1920.81 239.66 1930.38 246.843 1953.51 254.027C1981.42 262.806 1995.77 274.778 1995.77 298.722C1995.77 321.07 1979.02 342.619 1939.95 342.619C1924 342.619 1906.46 337.83 1897.69 332.243L1902.47 316.281Z" fill="#0098DA"/>
<path d="M420.097 351.398C420.097 394.497 385.011 429.615 341.951 429.615C298.891 429.615 263.805 394.497 263.805 351.398V126.325L204 119.142V351.398C204 428.018 266.198 489.474 341.951 489.474C417.705 489.474 479.902 427.22 479.902 351.398V119.142L420.097 126.325V351.398Z" fill="#0098DA"/>
<path d="M358.697 179.8H286.931C282.146 179.8 278.159 175.81 278.159 171.021V99.189C278.159 94.4002 282.146 90.4095 286.931 90.4095H358.697C363.482 90.4095 367.469 94.4002 367.469 99.189V171.021C367.469 175.81 363.482 179.8 358.697 179.8Z" fill="#3E4095"/>
<path d="M400.959 227.688H350.723C345.938 227.688 341.951 223.698 341.951 218.909V168.627C341.951 163.838 345.938 159.847 350.723 159.847H400.959C405.744 159.847 409.731 163.838 409.731 168.627V218.909C409.731 224.496 405.744 227.688 400.959 227.688Z" fill="#3E4095"/>
<path d="M394.581 102.381H358.697C353.913 102.381 349.926 98.3903 349.926 93.6015V57.6856C349.926 52.8968 353.913 48.9062 358.697 48.9062H394.581C399.365 48.9062 403.352 52.8968 403.352 57.6856V93.6015C402.555 98.3903 399.365 102.381 394.581 102.381Z" fill="#3E4095"/>
<path d="M334.774 42.5215H318.028C313.244 42.5215 309.257 38.5308 309.257 33.7421V17.7794C309.257 12.9907 313.244 9 318.028 9H334.774C339.558 9 343.545 12.9907 343.545 17.7794V34.5402C343.545 39.329 339.558 42.5215 334.774 42.5215Z" fill="#3E4095"/>
<path d="M398.566 404.872H284.537V406.468H398.566V404.872Z" fill="#ECF9FF"/>
<path d="M398.566 402.479H284.537V404.075H398.566V402.479Z" fill="#EBF9FF"/>
<path d="M398.566 400.882H284.537V402.478H398.566V400.882Z" fill="#EAF8FF"/>
<path d="M398.566 399.286H284.537V400.882H398.566V399.286Z" fill="#E9F8FF"/>
<path d="M398.566 396.891H284.537V398.487H398.566V396.891Z" fill="#E8F8FF"/>
<path d="M398.566 395.295H284.537V396.892H398.566V395.295Z" fill="#E7F7FF"/>
<path d="M398.566 393.7H284.537V395.296H398.566V393.7Z" fill="#E6F7FF"/>
<path d="M398.566 392.102H284.537V393.699H398.566V392.102Z" fill="#E5F7FF"/>
<path d="M398.566 389.709H284.537V391.305H398.566V389.709Z" fill="#E4F6FE"/>
<path d="M398.566 388.112H284.537V389.708H398.566V388.112Z" fill="#E3F6FE"/>
<path d="M398.566 386.516H284.537V388.113H398.566V386.516Z" fill="#E2F5FE"/>
<path d="M398.566 384.121H284.537V385.718H398.566V384.121Z" fill="#E1F5FE"/>
<path d="M398.566 382.526H284.537V384.122H398.566V382.526Z" fill="#E0F5FE"/>
<path d="M398.566 380.928H284.537V382.525H398.566V380.928Z" fill="#DFF4FE"/>
<path d="M398.566 378.535H284.537V380.131H398.566V378.535Z" fill="#DEF4FE"/>
<path d="M398.566 376.938H284.537V378.534H398.566V376.938Z" fill="#DDF4FE"/>
<path d="M398.566 375.342H284.537V376.938H398.566V375.342Z" fill="#DCF3FE"/>
<path d="M398.566 372.947H284.537V374.543H398.566V372.947Z" fill="#DBF3FE"/>
<path d="M398.566 371.352H284.537V372.948H398.566V371.352Z" fill="#DAF3FE"/>
<path d="M398.566 369.754H284.537V371.351H398.566V369.754Z" fill="#D9F2FE"/>
<path d="M398.566 368.159H284.537V369.755H398.566V368.159Z" fill="#D8F2FE"/>
<path d="M398.566 365.764H284.537V367.36H398.566V365.764Z" fill="#D7F2FE"/>
<path d="M398.566 364.168H284.537V365.765H398.566V364.168Z" fill="#D6F1FE"/>
<path d="M398.566 362.573H284.537V364.169H398.566V362.573Z" fill="#D5F1FE"/>
<path d="M398.566 360.178H284.537V361.774H398.566V360.178Z" fill="#D4F1FD"/>
<path d="M398.566 358.582H284.537V360.178H398.566V358.582Z" fill="#D3F0FD"/>
<path d="M398.566 356.985H284.537V358.581H398.566V356.985Z" fill="#D2F0FD"/>
<path d="M398.566 354.591H284.537V356.188H398.566V354.591Z" fill="#D1F0FD"/>
<path d="M398.566 352.994H284.537V354.59H398.566V352.994Z" fill="#D0EFFD"/>
<path d="M398.566 351.399H284.537V352.995H398.566V351.399Z" fill="#CFEFFD"/>
<path d="M398.566 349.004H284.537V350.6H398.566V349.004Z" fill="#CEEEFD"/>
<path d="M398.566 347.408H284.537V349.004H398.566V347.408Z" fill="#CDEEFD"/>
<path d="M398.566 345.811H284.537V347.407H398.566V345.811Z" fill="#CCEEFD"/>
<path d="M398.566 344.215H284.537V345.811H398.566V344.215Z" fill="#CBEDFD"/>
<path d="M398.566 341.82H284.537V343.416H398.566V341.82Z" fill="#CAEDFD"/>
<path d="M398.566 340.224H284.537V341.821H398.566V340.224Z" fill="#C9EDFD"/>
<path d="M398.566 338.627H284.537V340.223H398.566V338.627Z" fill="#C8ECFD"/>
<path d="M398.566 336.234H284.537V337.83H398.566V336.234Z" fill="#C7ECFD"/>
<path d="M398.566 334.637H284.537V336.233H398.566V334.637Z" fill="#C6ECFD"/>
<path d="M398.566 333.041H284.537V334.637H398.566V333.041Z" fill="#C4EBFC"/>
<path d="M398.566 330.646H284.537V332.242H398.566V330.646Z" fill="#C3EBFC"/>
<path d="M398.566 329.05H284.537V330.647H398.566V329.05Z" fill="#C2EBFC"/>
<path d="M398.566 327.455H284.537V329.051H398.566V327.455Z" fill="#C1EAFC"/>
<path d="M398.566 325.06H284.537V326.656H398.566V325.06Z" fill="#C0EAFC"/>
<path d="M398.566 323.464H284.537V325.061H398.566V323.464Z" fill="#BFEAFC"/>
<path d="M398.566 321.867H284.537V323.463H398.566V321.867Z" fill="#BEE9FC"/>
<path d="M398.566 320.271H284.537V321.868H398.566V320.271Z" fill="#BDE9FC"/>
<path d="M398.566 317.876H284.537V319.473H398.566V317.876Z" fill="#BCE9FC"/>
<path d="M398.566 316.281H284.537V317.877H398.566V316.281Z" fill="#BBE8FC"/>
<path d="M398.566 314.684H284.537V316.28H398.566V314.684Z" fill="#BAE8FC"/>
<path d="M398.566 312.29H284.537V313.886H398.566V312.29Z" fill="#B9E7FC"/>
<path d="M398.566 310.693H284.537V312.289H398.566V310.693Z" fill="#B8E7FC"/>
<path d="M398.566 309.097H284.537V310.694H398.566V309.097Z" fill="#B7E7FC"/>
<path d="M398.566 306.702H284.537V308.299H398.566V306.702Z" fill="#B6E6FC"/>
<path d="M398.566 305.107H284.537V306.703H398.566V305.107Z" fill="#B5E6FB"/>
<path d="M398.566 303.509H284.537V305.106H398.566V303.509Z" fill="#B4E6FB"/>
<path d="M398.566 301.116H284.537V302.712H398.566V301.116Z" fill="#B3E5FB"/>
<path d="M398.566 299.519H284.537V301.115H398.566V299.519Z" fill="#B2E5FB"/>
<path d="M398.566 297.923H284.537V299.52H398.566V297.923Z" fill="#B1E5FB"/>
<path d="M398.566 296.328H284.537V297.924H398.566V296.328Z" fill="#B0E4FB"/>
<path d="M398.566 293.933H284.537V295.529H398.566V293.933Z" fill="#AFE4FB"/>
<path d="M398.566 292.337H284.537V293.933H398.566V292.337Z" fill="#AEE4FB"/>
<path d="M398.566 290.74H284.537V292.336H398.566V290.74Z" fill="#ADE3FB"/>
<path d="M398.566 288.347H284.537V289.943H398.566V288.347Z" fill="#ACE3FB"/>
<path d="M398.566 286.749H284.537V288.346H398.566V286.749Z" fill="#ABE3FB"/>
<path d="M398.566 285.154H284.537V286.75H398.566V285.154Z" fill="#AAE2FB"/>
<path d="M398.566 282.759H284.537V284.355H398.566V282.759Z" fill="#A9E2FB"/>
<path d="M398.566 281.163H284.537V282.759H398.566V281.163Z" fill="#A8E2FB"/>
<path d="M398.566 279.566H284.537V281.162H398.566V279.566Z" fill="#A7E1FB"/>
<path d="M398.566 277.173H284.537V278.769H398.566V277.173Z" fill="#A6E1FB"/>
<path d="M398.566 275.575H284.537V277.171H398.566V275.575Z" fill="#A5E0FA"/>
<path d="M398.566 273.98H284.537V275.576H398.566V273.98Z" fill="#A4E0FA"/>
<path d="M398.566 272.382H284.537V273.979H398.566V272.382Z" fill="#A3E0FA"/>
<path d="M398.566 269.989H284.537V271.585H398.566V269.989Z" fill="#A2DFFA"/>
<path d="M398.566 268.392H284.537V269.988H398.566V268.392Z" fill="#A1DFFA"/>
<path d="M398.566 266.796H284.537V268.392H398.566V266.796Z" fill="#A0DFFA"/>
<path d="M398.566 264.394H284.537V265.991H398.566V264.394Z" fill="#9FDEFA"/>
<path d="M398.566 262.806H284.537V264.402H398.566V262.806Z" fill="#9EDEFA"/>
</g>
<defs>
<clipPath id="clip0_697_4">
<rect width="1791.77" height="480.475" fill="white" transform="translate(204 9)"/>
</clipPath>
</defs>
</svg>
