<?xml version="1.0" encoding="UTF-8" standalone="no"?>
<!-- Created with Inkscape (http://www.inkscape.org/) -->

<svg
   width="1280"
   height="257.89032"
   viewBox="0 0 338.66667 68.23348"
   version="1.1"
   id="svg5"
   xml:space="preserve"
   xmlns="http://www.w3.org/2000/svg"
   xmlns:svg="http://www.w3.org/2000/svg"><defs
     id="defs2"><style
       id="style433">.cls-1{fill:none;}.cls-2{fill:#1c2b33;}.cls-3{clip-path:url(#clip-path);}.cls-4{clip-path:url(#clip-path-2);}.cls-5{fill:url(#linear-gradient);}</style><clipPath
       id="clip-path-2"><rect
         class="cls-1"
         x="994.99487"
         y="994.99982"
         width="1514.828"
         height="1010"
         id="rect438" /></clipPath><linearGradient
       id="linear-gradient"
       x1="1865.507"
       y1="1532.9408"
       x2="1449.0802"
       y2="987.27722"
       gradientUnits="userSpaceOnUse"
       gradientTransform="matrix(0.26458333,0,0,0.26458333,-943.71407,355.69281)"><stop
         offset="0.1336"
         stop-color="#0869e1"
         id="stop441" /><stop
         offset="0.8727"
         stop-color="#0064e0"
         id="stop443" /></linearGradient><clipPath
       clipPathUnits="userSpaceOnUse"
       id="clipPath682"><g
         id="g690"><g
           id="g688"><g
             id="g686"><path
               class="cls-1"
               d="m -393.38209,620.27614 c -32.64723,0 -58.16807,24.58932 -81.27048,55.82526 -31.74695,-40.42246 -58.29723,-55.82526 -90.06998,-55.82526 -64.77731,0 -114.40949,84.30173 -114.40949,173.53018 0,55.83618 27.0128,91.05315 72.25864,91.05315 32.56505,0 55.98583,-15.35269 97.62212,-88.13361 0,0 17.35595,-30.64967 29.29596,-51.76271 q 6.27592,10.13296 13.21983,21.83741 l 19.52442,32.84482 c 38.03311,63.64497 59.22396,85.21409 97.62212,85.21409 44.0785,0 68.60911,-35.69846 68.60911,-92.69539 1e-4,-93.4253 -50.75116,-171.88794 -112.40225,-171.88794 z m -147.61919,156.74282 c -33.75718,52.91666 -45.43536,64.7773 -64.22991,64.7773 -19.34194,0 -30.83763,-16.98054 -30.83763,-47.26006 0,-64.7773 32.29742,-131.01436 70.79884,-131.01436 20.84951,0 38.27301,12.04118 64.96114,50.24784 -25.34158,38.87017 -40.69244,63.24928 -40.69244,63.24928 z m 127.40436,-6.66168 -23.34419,-38.93294 q -9.4761,-15.4115 -18.21349,-28.37127 c 21.03967,-32.47371 38.39461,-48.65473 59.03545,-48.65473 42.88078,0 77.18538,63.13506 77.18538,140.68533 0,29.56036 -9.68203,46.71267 -29.74284,46.71267 -19.2274,-8e-5 -28.41273,-12.69849 -64.92031,-71.43906 z"
               id="path684"
               style="stroke-width:0.264583" /></g></g></g></clipPath><style
       id="style696">.cls-1{fill:none;}.cls-2{fill:#fff;}</style><style
       id="style745">.cls-1{fill:none;}.cls-2{fill:#1c2b33;}.cls-3{clip-path:url(#clip-path);}.cls-4{clip-path:url(#clip-path-2);}.cls-5{fill:url(#linear-gradient);}</style><clipPath
       id="clip-path-2-2"><rect
         class="cls-1"
         x="994.99487"
         y="994.99982"
         width="1514.828"
         height="1010"
         id="rect750" /></clipPath><linearGradient
       id="linear-gradient-3"
       x1="1865.507"
       y1="1532.9408"
       x2="1449.0802"
       y2="987.27722"
       gradientUnits="userSpaceOnUse"
       gradientTransform="matrix(0.26458333,0,0,0.26458333,-1933.1671,2402.6012)"><stop
         offset="0.1336"
         stop-color="#0869e1"
         id="stop753" /><stop
         offset="0.8727"
         stop-color="#0064e0"
         id="stop755" /></linearGradient><clipPath
       clipPathUnits="userSpaceOnUse"
       id="clipPath870"><g
         id="g878"><g
           id="g876"
           transform="translate(-5.034397e-6,8.812347e-5)"><g
             id="g874"
             transform="translate(-5.034397e-6,8.812347e-5)"><path
               class="cls-1"
               d="m -1453.3097,3125.2692 c -32.6473,0 -58.1681,24.5893 -81.2705,55.8253 -31.747,-40.4225 -58.2972,-55.8253 -90.07,-55.8253 -64.7773,0 -114.4095,84.3018 -114.4095,173.5302 0,55.8362 27.0128,91.0532 72.2587,91.0532 32.565,0 55.9858,-15.3527 97.6221,-88.1336 0,0 17.3559,-30.6497 29.296,-51.7628 q 6.2759,10.133 13.2198,21.8375 l 19.5244,32.8448 c 38.0331,63.6449 59.224,85.2141 97.6221,85.2141 44.0785,0 68.6091,-35.6985 68.6091,-92.6954 10e-5,-93.4253 -50.7511,-171.888 -112.4022,-171.888 z m -147.6192,156.7428 c -33.7572,52.9167 -45.4354,64.7773 -64.2299,64.7773 -19.342,0 -30.8377,-16.9805 -30.8377,-47.26 0,-64.7773 32.2975,-131.0144 70.7989,-131.0144 20.8495,0 38.273,12.0412 64.9611,50.2479 -25.3416,38.8701 -40.6924,63.2492 -40.6924,63.2492 z m 127.4043,-6.6616 -23.3441,-38.933 q -9.4761,-15.4115 -18.2135,-28.3712 c 21.0396,-32.4738 38.3946,-48.6548 59.0354,-48.6548 42.8808,0 77.1854,63.1351 77.1854,140.6854 0,29.5603 -9.682,46.7126 -29.7428,46.7126 -19.2274,-1e-4 -28.4128,-12.6985 -64.9204,-71.439 z"
               id="path872"
               style="stroke-width:0.264583" /></g></g></g></clipPath><linearGradient
       id="Grad_Logo1"
       x1="61"
       y1="117"
       x2="259"
       y2="127"
       gradientUnits="userSpaceOnUse"
       gradientTransform="matrix(1.417636,0,0,1.417636,-1809.6204,3011.4314)"><stop
         style="stop-color:#0064e1"
         offset="0"
         id="stop2298" /><stop
         style="stop-color:#0064e1"
         offset="0.4"
         id="stop2300" /><stop
         style="stop-color:#0073ee"
         offset="0.83"
         id="stop2302" /><stop
         style="stop-color:#0082fb"
         offset="1"
         id="stop2304" /></linearGradient><linearGradient
       id="Grad_Logo2"
       x1="45"
       y1="139"
       x2="45"
       y2="66"
       gradientUnits="userSpaceOnUse"
       gradientTransform="matrix(1.417636,0,0,1.417636,-1809.6204,3011.4314)"><stop
         style="stop-color:#0082fb"
         offset="0"
         id="stop2307" /><stop
         style="stop-color:#0064e0"
         offset="1"
         id="stop2309" /></linearGradient></defs><g
     id="layer1"
     transform="translate(1809.6205,-3011.4315)"><g
       id="g2714"
       transform="matrix(0.25199933,0,0,0.25199933,-1353.5974,2252.5528)"><path
         class="cls-2"
         d="m -1316.3681,3019.9939 h 50.9367 l 86.6109,156.6726 86.6098,-156.6725 h 49.8342 v 257.4422 h -41.5583 v -197.3101 l -75.9453,136.6284 h -38.9845 l -75.9454,-136.6284 v 197.3101 h -41.5581 z"
         id="path763"
         style="stroke-width:0.270831"
         clip-path="none"
         mask="none" /><path
         class="cls-2"
         d="m -908.32661,3282.0345 q -28.87192,0 -50.75246,-12.7803 -21.88467,-12.7802 -34.11116,-35.3982 -12.23077,-22.6192 -12.22847,-51.8562 0,-29.6046 11.95251,-52.4082 11.95245,-22.7988 33.19189,-35.6754 21.23998,-12.8684 48.82203,-12.8718 27.39767,0 47.16756,12.9634 19.76396,12.967 30.43243,36.3189 10.66317,23.3553 10.66552,54.7989 v 11.3992 h -141.0413 q 3.86259,23.5421 19.03306,37.0539 15.17044,13.5166 38.33968,13.5154 18.57159,0 31.99655,-5.5166 13.42141,-5.5164 25.19305,-16.7327 l 22.06607,27.0308 q -32.91946,30.1613 -80.72696,30.1589 z m 30.34204,-152.72 q -13.0586,-13.3298 -34.20289,-13.3323 -20.59717,0 -34.47885,13.6093 -13.8864,13.6081 -17.56175,36.5936 h 101.13855 q -1.84057,-23.5385 -14.89506,-36.8706 z"
         id="path765"
         style="stroke-width:0.270831"
         clip-path="none"
         mask="none" /><path
         class="cls-2"
         d="m -772.79726,3119.6623 h -38.24931 v -34.0197 h 38.24931 v -56.2689 h 40.08695 v 56.2689 h 58.10782 v 34.0197 h -58.10782 v 86.2424 q 0,21.513 7.35536,30.7083 7.35184,9.1978 25.19306,9.1942 7.90311,0 13.42376,-0.6434 5.5165,-0.6411 12.13564,-1.7472 v 33.6509 a 113.5961,113.5961 0 0 1 -15.35419,3.3113 120.83996,120.83996 0 0 1 -17.92929,1.287 q -64.91424,0 -64.91129,-70.9797 z"
         id="path767"
         style="stroke-width:0.270831"
         clip-path="none"
         mask="none" /><path
         class="cls-2"
         d="m -465.70147,3277.4362 h -39.35197 v -26.8474 q -10.48173,15.0806 -26.66317,23.2614 -16.18322,8.1797 -36.77799,8.1845 -25.37562,0 -44.95998,-12.9658 -19.58437,-12.9635 -30.80119,-35.673 -11.21795,-22.7108 -11.21739,-51.9479 0,-29.4214 11.40175,-52.0417 11.39928,-22.6157 31.53625,-35.4899 20.13563,-12.8684 46.24694,-12.8718 19.67587,0 35.30667,7.6324 a 69.802339,69.802339 0 0 1 25.92811,21.6058 v -24.64 h 39.35197 z m -40.08694,-124.6747 q -6.43944,-16.3664 -20.32003,-25.8377 -13.8864,-9.469 -32.08806,-9.469 -25.74725,0 -41.00636,17.2846 -15.26555,17.2858 -15.2626,46.7084 0,29.6082 14.7107,46.8917 14.70897,17.2858 39.90379,17.2847 18.5698,0 33.09912,-9.563 14.524,-9.5572 20.96349,-25.7439 z"
         id="path769"
         style="stroke-width:0.270831"
         clip-path="none"
         mask="none" /><path
         id="Logo0"
         style="fill:#0081fb;stroke-width:1.41764"
         d="m -1765.5886,3189.9968 c 0,15.5657 3.4165,27.5163 7.882,34.7463 5.8549,9.4698 14.5875,13.4817 23.4903,13.4817 11.4828,0 21.9875,-2.8494 42.2313,-30.8478 16.2178,-22.4411 35.3275,-53.941 48.1855,-73.6887 l 21.7749,-33.4562 c 15.1261,-23.235 32.634,-49.0644 52.7077,-66.5722 16.3879,-14.2897 34.0658,-22.2285 51.8571,-22.2285 29.8696,0 58.3215,17.3093 80.0964,49.7732 23.8305,35.5543 35.3984,80.3374 35.3984,126.5524 0,27.4738 -5.4154,47.6609 -14.63,63.6093 -8.9027,15.4239 -26.2546,30.8336 -55.4437,30.8336 v -43.9751 c 24.9929,0 31.2305,-22.9657 31.2305,-49.2487 0,-37.4539 -8.7327,-79.019 -27.97,-108.7185 -13.6518,-21.066 -31.3439,-33.9382 -50.8081,-33.9382 -21.0518,0 -37.9926,15.8775 -57.0314,44.1877 -10.122,15.0412 -20.5132,33.3712 -32.1804,54.0545 l -12.8438,22.7531 c -25.8009,45.7471 -32.3362,56.1667 -45.2367,73.3626 -22.6113,30.1106 -41.9195,41.5226 -67.3377,41.5226 -30.1532,0 -49.2204,-13.0565 -61.0293,-32.7332 -9.6399,-16.0335 -14.3748,-37.0712 -14.3748,-61.0434 z"
         clip-path="none"
         mask="none" /><path
         id="Logo1"
         style="fill:url(#Grad_Logo1);stroke-width:1.41764"
         d="m -1774.9025,3064.3092 c 20.1871,-31.1171 49.3196,-52.8778 82.7332,-52.8778 19.3508,0 38.5881,5.7272 58.676,22.1293 21.9734,17.9331 45.3927,47.4625 74.6102,96.1299 l 10.4763,17.4653 c 25.2906,42.1321 39.6796,63.8078 48.1004,74.0289 10.8307,13.1273 18.4151,17.04 28.2677,17.04 24.9929,0 31.2305,-22.9657 31.2305,-49.2487 l 38.8432,-1.2191 c 0,27.4738 -5.4154,47.6609 -14.63,63.6093 -8.9027,15.4239 -26.2546,30.8336 -55.4437,30.8336 -18.1458,0 -34.2218,-3.9411 -51.9989,-20.7117 -13.666,-12.8721 -29.6428,-35.7386 -41.9337,-56.2943 l -36.5608,-61.0718 c -18.3442,-30.6493 -35.1716,-53.5016 -44.9107,-63.8503 -10.4764,-11.1284 -23.9439,-24.5676 -45.4353,-24.5676 -17.3944,0 -32.1661,12.2058 -44.5279,30.8761 z"
         clip-path="none"
         mask="none" /><path
         id="Logo2"
         style="fill:url(#Grad_Logo2);stroke-width:1.41764"
         d="m -1692.8781,3055.7042 c -17.3944,0 -32.1661,12.2058 -44.5279,30.8761 -17.4795,26.3822 -28.1826,65.6791 -28.1826,103.4165 0,15.5657 3.4165,27.5163 7.882,34.7463 l -37.539,24.7236 c -9.6399,-16.0335 -14.3748,-37.0712 -14.3748,-61.0434 0,-43.5924 11.9648,-89.0276 34.7179,-124.1141 20.1871,-31.1171 49.3196,-52.8778 82.7332,-52.8778 z"
         clip-path="none"
         mask="none" /></g></g></svg>
